<svg xmlns="http://www.w3.org/2000/svg" xmlns:xlink="http://www.w3.org/1999/xlink" width="500" height="500" viewBox="0 0 500 500">
  <defs>
    <clipPath id="clip-Language_">
      <rect width="500" height="500"/>
    </clipPath>
  </defs>
  <g id="Language_" data-name="Language " clip-path="url(#clip-Language_)">
    <path id="Icon_material-language" data-name="Icon material-language" d="M205.582,3C93.645,3,3,93.848,3,205.785S93.645,408.57,205.582,408.57c112.14,0,202.988-90.848,202.988-202.785S317.723,3,205.582,3Zm140.53,121.671H286.291A317.341,317.341,0,0,0,258.307,52.48,162.83,162.83,0,0,1,346.113,124.671Zm-140.327-80.3a285.657,285.657,0,0,1,38.732,80.3H167.053A285.659,285.659,0,0,1,205.785,44.368ZM48.829,246.342a167.133,167.133,0,0,1-5.272-40.557,167.133,167.133,0,0,1,5.272-40.557h68.541a334.905,334.905,0,0,0-2.839,40.557,334.906,334.906,0,0,0,2.839,40.557ZM65.458,286.9h59.822a317.342,317.342,0,0,0,27.984,72.192A161.961,161.961,0,0,1,65.458,286.9Zm59.822-162.228H65.458A161.96,161.96,0,0,1,153.264,52.48,317.341,317.341,0,0,0,125.279,124.671ZM205.785,367.2a285.659,285.659,0,0,1-38.732-80.3h77.464A285.659,285.659,0,0,1,205.785,367.2Zm47.452-120.86h-94.9a298.353,298.353,0,0,1-3.245-40.557,295.761,295.761,0,0,1,3.245-40.557h94.9a295.756,295.756,0,0,1,3.245,40.557A298.348,298.348,0,0,1,253.237,246.342Zm5.07,112.749A317.342,317.342,0,0,0,286.291,286.9h59.822a162.83,162.83,0,0,1-87.806,72.192ZM294.2,246.342a334.906,334.906,0,0,0,2.839-40.557,334.905,334.905,0,0,0-2.839-40.557h68.541a167.134,167.134,0,0,1,5.272,40.557,167.135,167.135,0,0,1-5.272,40.557Z" transform="translate(44 44)" fill="#6e6e6e"/>
  </g>
</svg>
