<?xml version="1.0" encoding="utf-8"?>
<!-- Generator: Adobe Illustrator 20.1.0, SVG Export Plug-In . SVG Version: 6.00 Build 0)  -->
<svg version="1.1" id="圖層_1" xmlns="http://www.w3.org/2000/svg" xmlns:xlink="http://www.w3.org/1999/xlink" x="0px" y="0px"
	 viewBox="0 0 340.2 141.7" style="enable-background:new 0 0 340.2 141.7;" xml:space="preserve">
<style type="text/css">
	.st0{clip-path:url(#SVGID_2_);}
	.st1{fill:#AD2031;}
</style>
<g>
	<defs>
		<rect id="SVGID_1_" x="5.1" y="-101.1" width="333" height="333"/>
	</defs>
	<clipPath id="SVGID_2_">
		<use xlink:href="#SVGID_1_"  style="overflow:visible;"/>
	</clipPath>
	<g id="Logo" class="st0">
		<g id="home" transform="translate(6 173.128)">
			<g id="Group-20" transform="translate(0 -8.128)">
				<path id="Fill-1" class="st1" d="M122.6-95.6h14.6v-4.2h-14.6V-95.6z M122.6-103.1h14.6v-4.1h-14.6V-103.1z M131.9-114.2
					c-0.3,1.2-0.7,2.4-1.1,3.6h10.6v20.4h-4.2v-1.9h-14.6v1.9h-4v-20.4h8.1c0.2-1.1,0.4-2.3,0.6-3.6h-12v-3.6h29.1v3.6H131.9z"/>
				<path id="Fill-3" class="st1" d="M173.6-98.1c1.3-1.9,2.5-3.9,3.4-6l3.4,1.8c-1.3,2.1-2.7,4.3-3.9,5.8L173.6-98.1z M179.5-105.7
					h-24.6v-3.3h20.8v-1.5h-19.3v-2.6h19.3v-1.5h-20.8v-3.3h24.6L179.5-105.7z M161-102.7c-0.8,2.3-1.9,4.8-3.6,6.4l-3.3-1.8
					c1.6-1.6,2.9-3.6,3.5-5.8L161-102.7z M169.8-105.1c-0.1,1.2-0.3,2.2-0.5,3.3c1.9,5.1,6,7.9,13.9,8.7c-0.9,1-1.7,2.1-2.3,3.4
					c-6.7-1-10.6-3.4-13.1-7.6c-1.9,3.7-5.7,6.4-13.8,7.9c-0.5-1.2-1.2-2.3-2.1-3.2c12-2,13-6.1,13.6-12.5L169.8-105.1z"/>
				<path id="Fill-4" class="st1" d="M204-101.4c-0.4,0.8-0.7,1.6-1.1,2.2c0.7,0.3,1.5,0.7,2.2,1c0.8-1,1.5-2.1,2-3.2L204-101.4z
					 M208.6-92.9c-0.7-0.5-1.7-1.1-2.7-1.7c-1.8,1.6-3.9,2.8-6.2,3.6c-0.5-1-1.1-1.8-1.8-2.6c1.8-0.5,3.5-1.4,5-2.5
					c-1.5-0.7-2.9-1.3-4.3-1.9c0.7-1.1,1.3-2.3,1.8-3.5h-1.8v-2.7h3c0.3-0.8,0.7-1.7,0.9-2.5H199v-2.8h11.3v2.8H206
					c-0.3,0.8-0.6,1.6-0.9,2.5h3.3l0.6-0.1l2.1,0.7c-0.6,2.5-1.6,4.8-3.1,6.9c1,0.5,1.9,1.1,2.7,1.5L208.6-92.9z M221.7-108.4
					c-1,4.8-2.5,8.9-4.7,12.3c0.6,1.8,1.3,2.9,2,2.9c0.6,0,0.9-1.6,1-5.2c0.9,0.8,1.9,1.5,3,2c-0.5,5.4-1.7,6.8-4.5,6.8
					c-1.8,0-3.1-1.2-4.1-3.2c-1.2,1.3-2.5,2.4-4,3.3c-0.8-1-1.7-1.8-2.7-2.6c2-1.1,3.8-2.7,5.3-4.5c-1.1-3.9-1.6-9-1.9-14.6H198v5.7
					c0,4.6-0.5,11.5-3.4,15.7c-0.9-0.9-1.9-1.6-2.9-2.2c2.5-3.9,2.7-9.4,2.7-13.5v-9H211c0-1.4-0.1-2.8-0.1-4.2h3.9
					c0,1.4,0,2.8,0,4.2h4.2c-1.1-0.9-2.4-1.6-3.6-2.3l2.2-2.1c1.6,0.7,3,1.7,4.4,2.7l-1.8,1.7h2.2v3.4h-7.6c0.1,3.3,0.5,6.6,1,9.8
					c1-2.4,1.8-5,2.2-7.6L221.7-108.4z"/>
				<path id="Fill-5" class="st1" d="M252-110.1c-1.4-1.8-3.1-3.4-4.9-4.7l2.6-2.1c1.8,1.3,4.1,3.1,5.1,4.5L252-110.1z M251.1-101.9
					c-1.6-1.8-3.3-3.4-5.3-4.8l2.5-2.1c2,1.3,3.8,2.8,5.4,4.5L251.1-101.9z M259.4-97.5v7.9h-3.9v-7.2l-10,1.6l-0.6-3.5l10.6-1.7
					v-18.3h3.9v17.6l3.3-0.5l0.6,3.5L259.4-97.5z M243.1-98.9c-0.6-1.2-1.3-2.3-2-3.4v12.7h-3.8v-11.2c-0.9,2.2-2.2,4.3-3.6,6.2
					c-0.5-1.2-1.1-2.4-1.8-3.5c1.9-2,3.7-5.3,4.9-8.4h-4.5v-3.5h5v-3.5c-1.3,0.2-2.5,0.4-3.7,0.5c-0.2-1-0.6-2-1.1-2.9
					c3.6-0.5,7.2-1.3,10.7-2.6l2.2,3c-1.4,0.5-2.8,0.9-4.3,1.2v4.3h4.4v3.5h-4.4v0.2c1,0.9,3.7,3.8,4.3,4.5L243.1-98.9z"/>
				<path id="Fill-6" class="st1" d="M288.7-103.8c0.9,2.1,2.3,3.9,3.9,5.5c1.7-1.5,3.1-3.4,4.1-5.5H288.7z M301.7-106.3
					c-1.1,3.9-3.2,7.5-6.2,10.4c2.3,1.5,4.9,2.6,7.7,3.1c-1,1-1.8,2-2.5,3.2c-3-0.8-5.8-2.1-8.2-3.9c-2.7,1.7-5.6,3-8.7,3.8
					c-0.6-1.2-1.3-2.3-2.1-3.4c2.8-0.6,5.5-1.6,7.9-3.1c-2-2.2-3.6-4.7-4.7-7.4l1-0.3h-1.7v-3.3h6.5v-3.7h-7.1v-3.4h7.1v-4.5h3.9
					v4.5h7.4v3.4h-7.4v3.7h4l0.7-0.2L301.7-106.3z M283.4-102.1c-1.2,0.3-2.3,0.6-3.5,0.9v7.5c0,1.8-0.4,2.7-1.5,3.3
					c-1.1,0.6-2.7,0.7-5,0.7c-0.2-1.2-0.6-2.3-1.1-3.4c1.3,0,2.6,0,3.1,0c0.5,0,0.6-0.2,0.6-0.6v-6.4l-3.2,0.7l-1-3.5
					c1.2-0.2,2.7-0.5,4.2-0.9v-5.5h-3.8v-3.4h3.8v-5.9h3.9v5.9h3.2v3.4h-3.2v4.6l3-0.7L283.4-102.1z"/>
				<path id="Fill-7" class="st1" d="M98.4-156.2c-1.1-0.4-4.4,10.8-15.7,24.9c-0.5,0.7-0.9,1.1-1.1,1.3
					c-14.8,20.1-35.9,32.3-38.6,33.5c-2.9,1.2-3.4,2.7-1,3.7C59.5-85.3,59-69,56-60.7c-1.8,5.3-6.8,6.6-9.9,6.9
					c-3.6,0.3-3-1.6-3-1.6c1.6-3.8,1.3-8.5,1.2-9.7c0-0.2,0.1-0.3,0.2-0.4c1-0.4,4.1-1.6,4.6-2.3c0.9-1.2,1.2-10.4-6-14.5
					C30.8-89.4,23-79.9,21.6-78c-0.1,0.2-0.4,0.2-0.5,0.1c0,0,0,0,0,0c-10.5-8.4-7.4-22.9-7.3-23.3c0,0,0,0,0,0
					c0.5-2.8,1.3-5.6,2.6-8.2c0.1-0.2,0-0.4-0.2-0.5c-0.1-0.1-0.2-0.1-0.3,0c-1.3,0.7-2.6,1.6-3.7,2.6C4.7-100.7,4.8-90.1,5-86.9
					c0,0.2-0.1,0.4-0.4,0.4c-0.1,0-0.1,0-0.2,0c-0.3-0.1-0.5-0.2-0.7-0.4C3.6-87,3.3-87,3.2-86.8c0,0.1-0.1,0.1-0.1,0.2
					c-0.5,5.9,1.1,11.8,1.7,13.8c0.1,0.2,0,0.4-0.2,0.5c-0.1,0-0.1,0-0.2,0c-0.2-0.1-0.4-0.1-0.7-0.2c-0.2-0.1-0.4,0.1-0.5,0.3
					c0,0,0,0.1,0,0.1c0.1,4.1,1.3,8.1,3.5,11.6c0.1,0.2,0.1,0.4-0.1,0.5C6.5-60,6.4-60,6.3-60c-0.2,0-0.4-0.1-0.6-0.2
					c-0.2-0.1-0.4,0-0.5,0.2c0,0.1,0,0.1,0,0.2c0.8,3.5,4,6.5,5.5,7.8c0.2,0.1,0.2,0.4,0,0.5c-0.1,0.1-0.2,0.1-0.3,0.1h0
					c-0.2,0-0.4,0.1-0.4,0.4c0,0.1,0,0.2,0.1,0.2c2,2.5,4.5,4.4,7.4,5.6c8.2,3.3,14.5,1.2,15.3,0.9c0.1,0,0.1,0,0.2,0
					c1.3,0.3,7.9,2.1,14.6,1.1C71.5-46.8,78-64.6,78.7-66.8c0.7-2.2,0.1-2.2-0.6-1.3c-1,1.1-2.3,1.9-3.7,2.4c-0.2,0.1-0.4,0-0.5-0.3
					c0-0.1,0-0.3,0.1-0.4c5.9-5.4,9.1-14.1,9.7-16.3c0.8-3.1-0.6-1.8-1.1-1.3c-1.6,1.8-3.5,3.3-5.6,4.5c-0.2,0.1-0.4,0-0.5-0.2
					c-0.1-0.1-0.1-0.3,0-0.4c5.3-6.3,7.8-12.4,8.5-15.9c0.9-4-0.7-2.1-0.7-2.1c-1.5,2.2-3.4,4.1-5.6,5.6c-0.2,0.1-0.4,0.1-0.5-0.1
					c-0.1-0.1-0.1-0.3,0-0.5c10.6-12.1,12.5-26,12.8-27.7c0.6-3.5-1.5-0.3-2.5,1.3c-2.1,3-4.5,5.7-7.4,8.1c-0.2,0.1-0.4,0.1-0.5-0.1
					c-0.1-0.1-0.1-0.3,0-0.5c6.5-9,11.5-19,14.9-29.6C98.2-149.4,99.2-156,98.4-156.2 M30.8-49c-1.4,0.6-9.7-10-8.5-17.6
					c0,0,4.8,2.3,7.8,2.5c1.1,4.1,3.4,7.9,6.7,10.7C35.2-51.5,33.1-49.9,30.8-49 M40.2-68.2c-1.6,0.4-5.2,0.5-6-1.6
					c0,0,3.8-6.2,8.4-1.1C42.7-70.9,43.7-69.2,40.2-68.2"/>
				<path id="Fill-8" class="st1" d="M113.1-72.9l-3.2,14.8c-0.1,0.2-0.1,0.3-0.1,0.5c-0.7,3.2-1.8,5.3-3.2,6.4
					c-1.5,1.1-3.6,1.7-6.4,1.7c-1,0-2.1,0-3.1-0.2c-1-0.1-1.9-0.4-2.8-0.8c-1-0.4-1.8-1.1-2.3-2c-0.7-1.1-1-2.3-0.9-3.6
					c0-0.5,0.1-1.1,0.2-1.6l6.7-0.8v0.3c0,0.3-0.1,0.6-0.1,0.9v0.5c0,1.3,0.7,1.9,2.1,1.9c0.6,0,1.1-0.1,1.6-0.5
					c0.4-0.4,0.7-0.8,0.8-1.3c0.2-0.7,0.4-1.5,0.6-2.2l3-14.1H113.1z"/>
				<path id="Fill-9" class="st1" d="M121-63.1c0.7-0.3,1.4-0.7,2-1.3c0.4-0.3,0.6-0.8,0.6-1.2c0-0.3-0.2-0.6-0.4-0.8
					c-0.3-0.2-0.7-0.4-1.1-0.4c-0.5,0-1,0.2-1.4,0.5c-0.3,0.3-0.5,0.8-0.5,1.3C120.3-64.3,120.5-63.7,121-63.1z M121.9-54.3
					c-1.2-1.2-2.3-2.5-3.3-3.9c-1.6,0.8-2.4,1.8-2.4,2.8c0,0.4,0.1,0.8,0.3,1.1c0.2,0.4,0.5,0.7,0.8,0.9c0.4,0.2,0.9,0.4,1.3,0.3
					C119.9-53.1,121-53.6,121.9-54.3z M130.4-56.6c-0.6,0.8-1.3,1.6-2,2.4c0.2,0.2,0.7,0.7,1.7,1.5l-3,3.1c-0.4-0.3-0.9-0.7-1.6-1.3
					c-0.2-0.2-0.3-0.3-0.5-0.4c-0.9,0.6-2,1.1-3,1.4c-1.1,0.2-2.2,0.4-3.2,0.3c-2.7,0-4.6-0.5-5.9-1.6c-1.2-0.9-1.8-2.3-1.9-3.8
					c0-2.8,1.9-4.9,5.6-6.3c-0.7-1.1-1-2.3-1.1-3.5c-0.1-1.5,0.6-2.8,1.8-3.6c1.4-0.9,3-1.3,4.6-1.3c1.6-0.1,3.1,0.4,4.5,1.2
					c1,0.7,1.7,1.8,1.7,3c0,0.7-0.2,1.4-0.6,2c-0.4,0.6-0.9,1.1-1.5,1.6c-0.8,0.5-1.5,1-2.3,1.4c-0.1,0-0.3,0.1-0.6,0.3l2.4,3
					c0.4-0.5,0.8-1,1.3-1.5c0.1-0.1,0.2-0.2,0.3-0.4L130.4-56.6z"/>
				<path id="Fill-10" class="st1" d="M159-72.9l-10,8.7l7.1,14.3h-7.7l-4.3-10l-5,4.3l-1.2,5.7h-7.2l4.9-23h7.2l-1.9,8.6l0.1,0.1
					l8.7-8.7H159z"/>
				<path id="Fill-11" class="st1" d="M189.6-66.5l-6.7,0.4c-0.1-2-1.3-3-3.3-3c-0.7,0-1.4,0.1-2,0.5c-0.4,0.3-0.7,0.8-0.7,1.3
					c0,0.4,0.2,0.8,0.6,1c0.8,0.6,1.7,1,2.6,1.3c1.5,0.5,2.9,1.2,4.2,1.9c1.1,0.6,2,1.4,2.7,2.3c0.7,1,1.1,2.3,1,3.6
					c0,1.3-0.4,2.6-1.1,3.7c-0.8,1.2-1.9,2.2-3.2,2.9c-1.4,0.7-3.4,1.1-6,1.1c-3.7,0-6.2-0.7-7.8-2.1c-1.5-1.4-2.4-3.4-2.3-5.4v-0.5
					l6.7-0.5c0,1.4,0.3,2.4,1,3c0.7,0.6,1.7,0.9,2.6,0.9c0.9,0.1,1.8-0.2,2.6-0.7c0.5-0.4,0.9-1,0.9-1.7c0-0.5-0.2-1-0.6-1.3
					c-0.8-0.6-1.8-1.1-2.8-1.4c-3.4-1.2-5.5-2.3-6.4-3.4c-0.9-1-1.4-2.3-1.3-3.7c0-1.3,0.4-2.5,1.1-3.6c0.8-1.1,1.9-2,3.2-2.5
					c1.6-0.6,3.3-0.9,5.1-0.9C185.9-73.3,189.2-71,189.6-66.5"/>
				<path id="Fill-12" class="st1" d="M210-60.7l-5.8,0.3c-0.3-1.5-1.3-2.2-2.9-2.2c-1.5-0.1-2.8,0.7-3.6,1.9
					c-0.8,1.2-1.3,2.7-1.3,4.1c0,0.8,0.3,1.6,0.9,2.1c0.5,0.5,1.2,0.7,1.9,0.7c1.7,0,3-0.9,3.8-2.8l6,0.6c-1.5,4.3-4.8,6.5-10,6.5
					c-5.9,0-8.8-2.4-8.8-7.2c0-2.7,1-5.3,2.9-7.2c1.9-2,4.7-3,8.2-3c2.5,0,4.5,0.5,6,1.5C208.9-64.3,209.9-62.6,210-60.7"/>
				<path id="Fill-13" class="st1" d="M221.5-72.9l-0.9,4.4h-6.4l0.9-4.4H221.5z M220.2-66.5l-3.6,16.7h-6.4l3.6-16.7H220.2z"/>
				<path id="Fill-14" class="st1" d="M233.9-59.7c0.1-0.3,0.1-0.6,0.1-1c0.1-0.7-0.2-1.4-0.8-1.9c-0.5-0.4-1.2-0.7-1.9-0.7
					c-0.8,0-1.6,0.3-2.2,0.9c-0.7,0.7-1.3,1.6-1.5,2.6L233.9-59.7z M239.2-54.1c-0.8,1.5-2.1,2.8-3.7,3.6c-1.8,0.8-3.7,1.2-5.6,1.1
					c-3.3,0-5.6-0.7-7-2.2c-1.4-1.5-2.1-3.4-2.1-5.4c0-1.5,0.3-2.9,1-4.2c0.6-1.3,1.5-2.4,2.6-3.3c1-0.8,2.1-1.4,3.3-1.8
					c1.2-0.3,2.5-0.5,3.8-0.5c3.1,0,5.3,0.7,6.7,2c1.3,1.3,2.1,3.1,2,5c-0.1,1.1-0.2,2.2-0.4,3.3h-12.7c0.2,2.2,1.2,3.3,3,3.3
					c1.2,0,2.3-0.5,3-1.5L239.2-54.1z"/>
				<path id="Fill-15" class="st1" d="M249.9-64c1.6-1.9,4-3,6.4-3c1.2-0.1,2.5,0.3,3.4,1.2c0.7,0.8,1.2,1.8,1.1,2.8
					c-0.1,1.3-0.3,2.7-0.6,4l-1.9,9.1h-6.4l1.6-7.7c0.3-1.1,0.5-2.2,0.6-3.3c0-0.9-0.4-1.4-1.3-1.4c-1,0-1.9,0.5-2.5,1.3
					c-0.8,1.1-1.4,2.4-1.6,3.8l-1.6,7.2h-6.4l3.6-16.7h6L249.9-64L249.9-64z"/>
				<path id="Fill-16" class="st1" d="M275.6-66.5l-1,4.6h-3.3l-1.2,5.9c-0.1,0.3-0.1,0.5-0.1,0.8c0,0.8,0.5,1.1,1.5,1.1
					c0.7,0,1.3-0.1,2-0.3l-1,4.6c-1.4,0.2-2.8,0.3-4.2,0.4c-1.8,0-3.1-0.4-3.8-1.3c-0.7-0.8-1.1-1.8-1.1-2.8
					c0.1-0.9,0.2-1.8,0.5-2.7l1.2-5.7h-2.3l0.9-4.6h2.3l0.5-2.6l7.1-3.6l-1.3,6.2L275.6-66.5z"/>
				<path id="Fill-17" class="st1" d="M286.6-72.9l-0.9,4.4h-6.4l0.9-4.4H286.6z M285.3-66.5l-3.6,16.7h-6.4l3.6-16.7H285.3z"/>
				<path id="Fill-18" class="st1" d="M308.6-72.9l-0.9,4.4h-6.4l0.9-4.4H308.6z M307.3-66.5l-3.6,16.7h-6.4l3.6-16.7H307.3z
					 M300.8-72.6l-1,3.8c-0.7-0.2-1.5-0.4-2.2-0.4c-0.4,0-0.8,0.1-1.2,0.3c-0.3,0.2-0.6,1-0.8,2.3h3.4l-1,4.6h-3.4L292-49.9h-6
					l2.6-12.1h-2l1-4.6h2c0.4-1.8,0.6-2.9,0.7-3.3c0.2-0.5,0.4-1,0.7-1.5c0.4-0.6,1-1.1,1.6-1.4c0.9-0.4,1.9-0.6,2.9-0.6
					C297.3-73.3,299.1-73,300.8-72.6L300.8-72.6z"/>
				<path id="Fill-19" class="st1" d="M327.5-60.7l-5.8,0.3c-0.3-1.5-1.3-2.2-2.9-2.2c-1.5-0.1-2.8,0.7-3.6,1.9
					c-0.8,1.2-1.3,2.7-1.3,4.1c0,0.8,0.3,1.6,0.9,2.1c0.5,0.5,1.2,0.7,1.9,0.7c1.7,0,3-0.9,3.8-2.8l6,0.6c-1.5,4.3-4.8,6.5-10,6.5
					c-5.9,0-8.8-2.4-8.8-7.2c0-2.7,1-5.3,2.9-7.2c1.9-2,4.7-3,8.2-3c2.5,0,4.5,0.5,6,1.5C326.4-64.3,327.4-62.6,327.5-60.7"/>
			</g>
			<g id="Group-20-2" transform="translate(0 -8.128)">
				<path id="Fill-1-2" class="st1" d="M122.6-95.6h14.6v-4.2h-14.6V-95.6z M122.6-103.1h14.6v-4.1h-14.6V-103.1z M131.9-114.2
					c-0.3,1.2-0.7,2.4-1.1,3.6h10.6v20.4h-4.2v-1.9h-14.6v1.9h-4v-20.4h8.1c0.2-1.1,0.4-2.3,0.6-3.6h-12v-3.6h29.1v3.6H131.9z"/>
				<path id="Fill-3-2" class="st1" d="M173.6-98.1c1.3-1.9,2.5-3.9,3.4-6l3.4,1.8c-1.3,2.1-2.7,4.3-3.9,5.8L173.6-98.1z
					 M179.5-105.7h-24.6v-3.3h20.8v-1.5h-19.3v-2.6h19.3v-1.5h-20.8v-3.3h24.6L179.5-105.7z M161-102.7c-0.8,2.3-1.9,4.8-3.6,6.4
					l-3.3-1.8c1.6-1.6,2.9-3.6,3.5-5.8L161-102.7z M169.8-105.1c-0.1,1.2-0.3,2.2-0.5,3.3c1.9,5.1,6,7.9,13.9,8.7
					c-0.9,1-1.7,2.1-2.3,3.4c-6.7-1-10.6-3.4-13.1-7.6c-1.9,3.7-5.7,6.4-13.8,7.9c-0.5-1.2-1.2-2.3-2.1-3.2c12-2,13-6.1,13.6-12.5
					L169.8-105.1z"/>
				<path id="Fill-4-2" class="st1" d="M204-101.4c-0.4,0.8-0.7,1.6-1.1,2.2c0.7,0.3,1.5,0.7,2.2,1c0.8-1,1.5-2.1,2-3.2L204-101.4z
					 M208.6-92.9c-0.7-0.5-1.7-1.1-2.7-1.7c-1.8,1.6-3.9,2.8-6.2,3.6c-0.5-1-1.1-1.8-1.8-2.6c1.8-0.5,3.5-1.4,5-2.5
					c-1.5-0.7-2.9-1.3-4.3-1.9c0.7-1.1,1.3-2.3,1.8-3.5h-1.8v-2.7h3c0.3-0.8,0.7-1.7,0.9-2.5H199v-2.8h11.3v2.8H206
					c-0.3,0.8-0.6,1.6-0.9,2.5h3.3l0.6-0.1l2.1,0.7c-0.6,2.5-1.6,4.8-3.1,6.9c1,0.5,1.9,1.1,2.7,1.5L208.6-92.9z M221.7-108.4
					c-1,4.8-2.5,8.9-4.7,12.3c0.6,1.8,1.3,2.9,2,2.9c0.6,0,0.9-1.6,1-5.2c0.9,0.8,1.9,1.5,3,2c-0.5,5.4-1.7,6.8-4.5,6.8
					c-1.8,0-3.1-1.2-4.1-3.2c-1.2,1.3-2.5,2.4-4,3.3c-0.8-1-1.7-1.8-2.7-2.6c2-1.1,3.8-2.7,5.3-4.5c-1.1-3.9-1.6-9-1.9-14.6H198v5.7
					c0,4.6-0.5,11.5-3.4,15.7c-0.9-0.9-1.9-1.6-2.9-2.2c2.5-3.9,2.7-9.4,2.7-13.5v-9H211c0-1.4-0.1-2.8-0.1-4.2h3.9
					c0,1.4,0,2.8,0,4.2h4.2c-1.1-0.9-2.4-1.6-3.6-2.3l2.2-2.1c1.6,0.7,3,1.7,4.4,2.7l-1.8,1.7h2.2v3.4h-7.6c0.1,3.3,0.5,6.6,1,9.8
					c1-2.4,1.8-5,2.2-7.6L221.7-108.4z"/>
				<path id="Fill-5-2" class="st1" d="M252-110.1c-1.4-1.8-3.1-3.4-4.9-4.7l2.6-2.1c1.8,1.3,4.1,3.1,5.1,4.5L252-110.1z
					 M251.1-101.9c-1.6-1.8-3.3-3.4-5.3-4.8l2.5-2.1c2,1.3,3.8,2.8,5.4,4.5L251.1-101.9z M259.4-97.5v7.9h-3.9v-7.2l-10,1.6
					l-0.6-3.5l10.6-1.7v-18.3h3.9v17.6l3.3-0.5l0.6,3.5L259.4-97.5z M243.1-98.9c-0.6-1.2-1.3-2.3-2-3.4v12.7h-3.8v-11.2
					c-0.9,2.2-2.2,4.3-3.6,6.2c-0.5-1.2-1.1-2.4-1.8-3.5c1.9-2,3.7-5.3,4.9-8.4h-4.5v-3.5h5v-3.5c-1.3,0.2-2.5,0.4-3.7,0.5
					c-0.2-1-0.6-2-1.1-2.9c3.6-0.5,7.2-1.3,10.7-2.6l2.2,3c-1.4,0.5-2.8,0.9-4.3,1.2v4.3h4.4v3.5h-4.4v0.2c1,0.9,3.7,3.8,4.3,4.5
					L243.1-98.9z"/>
				<path id="Fill-6-2" class="st1" d="M288.7-103.8c0.9,2.1,2.3,3.9,3.9,5.5c1.7-1.5,3.1-3.4,4.1-5.5H288.7z M301.7-106.3
					c-1.1,3.9-3.2,7.5-6.2,10.4c2.3,1.5,4.9,2.6,7.7,3.1c-1,1-1.8,2-2.5,3.2c-3-0.8-5.8-2.1-8.2-3.9c-2.7,1.7-5.6,3-8.7,3.8
					c-0.6-1.2-1.3-2.3-2.1-3.4c2.8-0.6,5.5-1.6,7.9-3.1c-2-2.2-3.6-4.7-4.7-7.4l1-0.3h-1.7v-3.3h6.5v-3.7h-7.1v-3.4h7.1v-4.5h3.9
					v4.5h7.4v3.4h-7.4v3.7h4l0.7-0.2L301.7-106.3z M283.4-102.1c-1.2,0.3-2.3,0.6-3.5,0.9v7.5c0,1.8-0.4,2.7-1.5,3.3
					c-1.1,0.6-2.7,0.7-5,0.7c-0.2-1.2-0.6-2.3-1.1-3.4c1.3,0,2.6,0,3.1,0c0.5,0,0.6-0.2,0.6-0.6v-6.4l-3.2,0.7l-1-3.5
					c1.2-0.2,2.7-0.5,4.2-0.9v-5.5h-3.8v-3.4h3.8v-5.9h3.9v5.9h3.2v3.4h-3.2v4.6l3-0.7L283.4-102.1z"/>
				<path id="Fill-7-2" class="st1" d="M98.4-156.2c-1.1-0.4-4.4,10.8-15.7,24.9c-0.5,0.7-0.9,1.1-1.1,1.3
					c-14.8,20.1-35.9,32.3-38.6,33.5c-2.9,1.2-3.4,2.7-1,3.7C59.5-85.3,59-69,56-60.7c-1.8,5.3-6.8,6.6-9.9,6.9
					c-3.6,0.3-3-1.6-3-1.6c1.6-3.8,1.3-8.5,1.2-9.7c0-0.2,0.1-0.3,0.2-0.4c1-0.4,4.1-1.6,4.6-2.3c0.9-1.2,1.2-10.4-6-14.5
					C30.8-89.4,23-79.9,21.6-78c-0.1,0.2-0.4,0.2-0.5,0.1c0,0,0,0,0,0c-10.5-8.4-7.4-22.9-7.3-23.3c0,0,0,0,0,0
					c0.5-2.8,1.3-5.6,2.6-8.2c0.1-0.2,0-0.4-0.2-0.5c-0.1-0.1-0.2-0.1-0.3,0c-1.3,0.7-2.6,1.6-3.7,2.6C4.7-100.7,4.8-90.1,5-86.9
					c0,0.2-0.1,0.4-0.4,0.4c-0.1,0-0.1,0-0.2,0c-0.3-0.1-0.5-0.2-0.7-0.4C3.6-87,3.3-87,3.2-86.8c0,0.1-0.1,0.1-0.1,0.2
					c-0.5,5.9,1.1,11.8,1.7,13.8c0.1,0.2,0,0.4-0.2,0.5c-0.1,0-0.1,0-0.2,0c-0.2-0.1-0.4-0.1-0.7-0.2c-0.2-0.1-0.4,0.1-0.5,0.3
					c0,0,0,0.1,0,0.1c0.1,4.1,1.3,8.1,3.5,11.6c0.1,0.2,0.1,0.4-0.1,0.5C6.5-60,6.4-60,6.3-60c-0.2,0-0.4-0.1-0.6-0.2
					c-0.2-0.1-0.4,0-0.5,0.2c0,0.1,0,0.1,0,0.2c0.8,3.5,4,6.5,5.5,7.8c0.2,0.1,0.2,0.4,0,0.5c-0.1,0.1-0.2,0.1-0.3,0.1h0
					c-0.2,0-0.4,0.1-0.4,0.4c0,0.1,0,0.2,0.1,0.2c2,2.5,4.5,4.4,7.4,5.6c8.2,3.3,14.5,1.2,15.3,0.9c0.1,0,0.1,0,0.2,0
					c1.3,0.3,7.9,2.1,14.6,1.1C71.5-46.8,78-64.6,78.7-66.8c0.7-2.2,0.1-2.2-0.6-1.3c-1,1.1-2.3,1.9-3.7,2.4c-0.2,0.1-0.4,0-0.5-0.3
					c0-0.1,0-0.3,0.1-0.4c5.9-5.4,9.1-14.1,9.7-16.3c0.8-3.1-0.6-1.8-1.1-1.3c-1.6,1.8-3.5,3.3-5.6,4.5c-0.2,0.1-0.4,0-0.5-0.2
					c-0.1-0.1-0.1-0.3,0-0.4c5.3-6.3,7.8-12.4,8.5-15.9c0.9-4-0.7-2.1-0.7-2.1c-1.5,2.2-3.4,4.1-5.6,5.6c-0.2,0.1-0.4,0.1-0.5-0.1
					c-0.1-0.1-0.1-0.3,0-0.5c10.6-12.1,12.5-26,12.8-27.7c0.6-3.5-1.5-0.3-2.5,1.3c-2.1,3-4.5,5.7-7.4,8.1c-0.2,0.1-0.4,0.1-0.5-0.1
					c-0.1-0.1-0.1-0.3,0-0.5c6.5-9,11.5-19,14.9-29.6C98.2-149.4,99.2-156,98.4-156.2 M30.8-49c-1.4,0.6-9.7-10-8.5-17.6
					c0,0,4.8,2.3,7.8,2.5c1.1,4.1,3.4,7.9,6.7,10.7C35.2-51.5,33.1-49.9,30.8-49 M40.2-68.2c-1.6,0.4-5.2,0.5-6-1.6
					c0,0,3.8-6.2,8.4-1.1C42.7-70.9,43.7-69.2,40.2-68.2"/>
				<path id="Fill-8-2" class="st1" d="M113.1-72.9l-3.2,14.8c-0.1,0.2-0.1,0.3-0.1,0.5c-0.7,3.2-1.8,5.3-3.2,6.4
					c-1.5,1.1-3.6,1.7-6.4,1.7c-1,0-2.1,0-3.1-0.2c-1-0.1-1.9-0.4-2.8-0.8c-1-0.4-1.8-1.1-2.3-2c-0.7-1.1-1-2.3-0.9-3.6
					c0-0.5,0.1-1.1,0.2-1.6l6.7-0.8v0.3c0,0.3-0.1,0.6-0.1,0.9v0.5c0,1.3,0.7,1.9,2.1,1.9c0.6,0,1.1-0.1,1.6-0.5
					c0.4-0.4,0.7-0.8,0.8-1.3c0.2-0.7,0.4-1.5,0.6-2.2l3-14.1H113.1z"/>
				<path id="Fill-9-2" class="st1" d="M121-63.1c0.7-0.3,1.4-0.7,2-1.3c0.4-0.3,0.6-0.8,0.6-1.2c0-0.3-0.2-0.6-0.4-0.8
					c-0.3-0.2-0.7-0.4-1.1-0.4c-0.5,0-1,0.2-1.4,0.5c-0.3,0.3-0.5,0.8-0.5,1.3C120.3-64.3,120.5-63.7,121-63.1z M121.9-54.3
					c-1.2-1.2-2.3-2.5-3.3-3.9c-1.6,0.8-2.4,1.8-2.4,2.8c0,0.4,0.1,0.8,0.3,1.1c0.2,0.4,0.5,0.7,0.8,0.9c0.4,0.2,0.9,0.4,1.3,0.3
					C119.9-53.1,121-53.6,121.9-54.3z M130.4-56.6c-0.6,0.8-1.3,1.6-2,2.4c0.2,0.2,0.7,0.7,1.7,1.5l-3,3.1c-0.4-0.3-0.9-0.7-1.6-1.3
					c-0.2-0.2-0.3-0.3-0.5-0.4c-0.9,0.6-2,1.1-3,1.4c-1.1,0.2-2.2,0.4-3.2,0.3c-2.7,0-4.6-0.5-5.9-1.6c-1.2-0.9-1.8-2.3-1.9-3.8
					c0-2.8,1.9-4.9,5.6-6.3c-0.7-1.1-1-2.3-1.1-3.5c-0.1-1.5,0.6-2.8,1.8-3.6c1.4-0.9,3-1.3,4.6-1.3c1.6-0.1,3.1,0.4,4.5,1.2
					c1,0.7,1.7,1.8,1.7,3c0,0.7-0.2,1.4-0.6,2c-0.4,0.6-0.9,1.1-1.5,1.6c-0.8,0.5-1.5,1-2.3,1.4c-0.1,0-0.3,0.1-0.6,0.3l2.4,3
					c0.4-0.5,0.8-1,1.3-1.5c0.1-0.1,0.2-0.2,0.3-0.4L130.4-56.6z"/>
				<path id="Fill-10-2" class="st1" d="M159-72.9l-10,8.7l7.1,14.3h-7.7l-4.3-10l-5,4.3l-1.2,5.7h-7.2l4.9-23h7.2l-1.9,8.6l0.1,0.1
					l8.7-8.7H159z"/>
				<path id="Fill-11-2" class="st1" d="M189.6-66.5l-6.7,0.4c-0.1-2-1.3-3-3.3-3c-0.7,0-1.4,0.1-2,0.5c-0.4,0.3-0.7,0.8-0.7,1.3
					c0,0.4,0.2,0.8,0.6,1c0.8,0.6,1.7,1,2.6,1.3c1.5,0.5,2.9,1.2,4.2,1.9c1.1,0.6,2,1.4,2.7,2.3c0.7,1,1.1,2.3,1,3.6
					c0,1.3-0.4,2.6-1.1,3.7c-0.8,1.2-1.9,2.2-3.2,2.9c-1.4,0.7-3.4,1.1-6,1.1c-3.7,0-6.2-0.7-7.8-2.1c-1.5-1.4-2.4-3.4-2.3-5.4v-0.5
					l6.7-0.5c0,1.4,0.3,2.4,1,3c0.7,0.6,1.7,0.9,2.6,0.9c0.9,0.1,1.8-0.2,2.6-0.7c0.5-0.4,0.9-1,0.9-1.7c0-0.5-0.2-1-0.6-1.3
					c-0.8-0.6-1.8-1.1-2.8-1.4c-3.4-1.2-5.5-2.3-6.4-3.4c-0.9-1-1.4-2.3-1.3-3.7c0-1.3,0.4-2.5,1.1-3.6c0.8-1.1,1.9-2,3.2-2.5
					c1.6-0.6,3.3-0.9,5.1-0.9C185.9-73.3,189.2-71,189.6-66.5"/>
				<path id="Fill-12-2" class="st1" d="M210-60.7l-5.8,0.3c-0.3-1.5-1.3-2.2-2.9-2.2c-1.5-0.1-2.8,0.7-3.6,1.9
					c-0.8,1.2-1.3,2.7-1.3,4.1c0,0.8,0.3,1.6,0.9,2.1c0.5,0.5,1.2,0.7,1.9,0.7c1.7,0,3-0.9,3.8-2.8l6,0.6c-1.5,4.3-4.8,6.5-10,6.5
					c-5.9,0-8.8-2.4-8.8-7.2c0-2.7,1-5.3,2.9-7.2c1.9-2,4.7-3,8.2-3c2.5,0,4.5,0.5,6,1.5C208.9-64.3,209.9-62.6,210-60.7"/>
				<path id="Fill-13-2" class="st1" d="M221.5-72.9l-0.9,4.4h-6.4l0.9-4.4H221.5z M220.2-66.5l-3.6,16.7h-6.4l3.6-16.7H220.2z"/>
				<path id="Fill-14-2" class="st1" d="M233.9-59.7c0.1-0.3,0.1-0.6,0.1-1c0.1-0.7-0.2-1.4-0.8-1.9c-0.5-0.4-1.2-0.7-1.9-0.7
					c-0.8,0-1.6,0.3-2.2,0.9c-0.7,0.7-1.3,1.6-1.5,2.6L233.9-59.7z M239.2-54.1c-0.8,1.5-2.1,2.8-3.7,3.6c-1.8,0.8-3.7,1.2-5.6,1.1
					c-3.3,0-5.6-0.7-7-2.2c-1.4-1.5-2.1-3.4-2.1-5.4c0-1.5,0.3-2.9,1-4.2c0.6-1.3,1.5-2.4,2.6-3.3c1-0.8,2.1-1.4,3.3-1.8
					c1.2-0.3,2.5-0.5,3.8-0.5c3.1,0,5.3,0.7,6.7,2c1.3,1.3,2.1,3.1,2,5c-0.1,1.1-0.2,2.2-0.4,3.3h-12.7c0.2,2.2,1.2,3.3,3,3.3
					c1.2,0,2.3-0.5,3-1.5L239.2-54.1z"/>
				<path id="Fill-15-2" class="st1" d="M249.9-64c1.6-1.9,4-3,6.4-3c1.2-0.1,2.5,0.3,3.4,1.2c0.7,0.8,1.2,1.8,1.1,2.8
					c-0.1,1.3-0.3,2.7-0.6,4l-1.9,9.1h-6.4l1.6-7.7c0.3-1.1,0.5-2.2,0.6-3.3c0-0.9-0.4-1.4-1.3-1.4c-1,0-1.9,0.5-2.5,1.3
					c-0.8,1.1-1.4,2.4-1.6,3.8l-1.6,7.2h-6.4l3.6-16.7h6L249.9-64L249.9-64z"/>
				<path id="Fill-16-2" class="st1" d="M275.6-66.5l-1,4.6h-3.3l-1.2,5.9c-0.1,0.3-0.1,0.5-0.1,0.8c0,0.8,0.5,1.1,1.5,1.1
					c0.7,0,1.3-0.1,2-0.3l-1,4.6c-1.4,0.2-2.8,0.3-4.2,0.4c-1.8,0-3.1-0.4-3.8-1.3c-0.7-0.8-1.1-1.8-1.1-2.8
					c0.1-0.9,0.2-1.8,0.5-2.7l1.2-5.7h-2.3l0.9-4.6h2.3l0.5-2.6l7.1-3.6l-1.3,6.2L275.6-66.5z"/>
				<path id="Fill-17-2" class="st1" d="M286.6-72.9l-0.9,4.4h-6.4l0.9-4.4H286.6z M285.3-66.5l-3.6,16.7h-6.4l3.6-16.7H285.3z"/>
				<path id="Fill-18-2" class="st1" d="M308.6-72.9l-0.9,4.4h-6.4l0.9-4.4H308.6z M307.3-66.5l-3.6,16.7h-6.4l3.6-16.7H307.3z
					 M300.8-72.6l-1,3.8c-0.7-0.2-1.5-0.4-2.2-0.4c-0.4,0-0.8,0.1-1.2,0.3c-0.3,0.2-0.6,1-0.8,2.3h3.4l-1,4.6h-3.4L292-49.9h-6
					l2.6-12.1h-2l1-4.6h2c0.4-1.8,0.6-2.9,0.7-3.3c0.2-0.5,0.4-1,0.7-1.5c0.4-0.6,1-1.1,1.6-1.4c0.9-0.4,1.9-0.6,2.9-0.6
					C297.3-73.3,299.1-73,300.8-72.6L300.8-72.6z"/>
				<path id="Fill-19-2" class="st1" d="M327.5-60.7l-5.8,0.3c-0.3-1.5-1.3-2.2-2.9-2.2c-1.5-0.1-2.8,0.7-3.6,1.9
					c-0.8,1.2-1.3,2.7-1.3,4.1c0,0.8,0.3,1.6,0.9,2.1c0.5,0.5,1.2,0.7,1.9,0.7c1.7,0,3-0.9,3.8-2.8l6,0.6c-1.5,4.3-4.8,6.5-10,6.5
					c-5.9,0-8.8-2.4-8.8-7.2c0-2.7,1-5.3,2.9-7.2c1.9-2,4.7-3,8.2-3c2.5,0,4.5,0.5,6,1.5C326.4-64.3,327.4-62.6,327.5-60.7"/>
			</g>
		</g>
	</g>
</g>
</svg>
