<svg xmlns="http://www.w3.org/2000/svg" xmlns:xlink="http://www.w3.org/1999/xlink" width="500" height="500" viewBox="0 0 500 500">
  <defs>
    <clipPath id="clip-Search">
      <rect width="500" height="500"/>
    </clipPath>
  </defs>
  <g id="Search" clip-path="url(#clip-Search)">
    <path id="Icon_awesome-search" data-name="Icon awesome-search" d="M476.351,406.076l-94.044-91.452a22.953,22.953,0,0,0-16.036-6.421H350.9a186.558,186.558,0,0,0,41.5-117.411C392.4,85.4,304.582,0,196.2,0S0,85.4,0,190.792,87.818,381.585,196.2,381.585a198.789,198.789,0,0,0,120.739-40.36v14.951a21.693,21.693,0,0,0,6.6,15.594l94.044,91.452a23,23,0,0,0,31.977,0l26.695-25.959A21.688,21.688,0,0,0,476.351,406.076ZM196.2,308.2c-66.689,0-120.739-52.468-120.739-117.411,0-64.851,53.955-117.411,120.739-117.411,66.689,0,120.739,52.468,120.739,117.411C316.939,255.643,262.984,308.2,196.2,308.2Z" transform="translate(9 15)" fill="#fff"/>
  </g>
</svg>
