<svg width="159" height="55" viewBox="0 0 159 55" fill="none" xmlns="http://www.w3.org/2000/svg">
<mask id="mask0_253_1310" style="mask-type:alpha" maskUnits="userSpaceOnUse" x="0" y="0" width="159" height="55">
<path d="M0 0H158.881V54.495H0V0Z" fill="white"/>
</mask>
<g mask="url(#mask0_253_1310)">
<path fill-rule="evenodd" clip-rule="evenodd" d="M58.5261 29.208H65.6711V27.154H58.5261V29.208ZM58.5261 25.511H65.6711V23.517H58.5261V25.511ZM63.0691 20.108C62.9081 20.717 62.7301 21.295 62.5511 21.843H67.7241V31.795H65.6711V30.882H58.5271V31.795H56.5711V21.843H60.5151C60.6281 21.295 60.7251 20.702 60.8061 20.108H54.9541V18.343H69.1641V20.108H63.0691Z" fill="#AD2031"/>
<path fill-rule="evenodd" clip-rule="evenodd" d="M83.5063 27.9703C84.0563 27.2243 84.7833 25.9913 85.1713 25.0633L86.8363 25.9613C86.2223 26.9663 85.5113 28.0463 84.9453 28.7923L83.5063 27.9703ZM86.3843 24.2423H74.3903V22.6443H84.5413V21.9283H75.1163V20.6813H84.5413V19.9503H74.3903V18.3373H86.3843V24.2423ZM77.3313 25.7183C76.9593 26.8293 76.3943 28.0463 75.5693 28.8523L73.9533 27.9553C74.7293 27.2553 75.3433 26.1593 75.6833 25.1243L77.3313 25.7183ZM81.6483 24.5463C81.5833 25.1093 81.5193 25.6423 81.4213 26.1593C82.3423 28.6703 84.3473 30.0393 88.2103 30.4053C87.8223 30.8013 87.3213 31.5463 87.1113 32.0643C83.8463 31.5613 81.9543 30.4053 80.7263 28.3663C79.8053 30.1773 77.9623 31.4703 73.9853 32.2313C73.8083 31.7593 73.3553 31.0293 72.9673 30.6633C78.8193 29.7053 79.3043 27.6813 79.6103 24.5463H81.6483Z" fill="#AD2031"/>
<path fill-rule="evenodd" clip-rule="evenodd" d="M98.4048 26.3419C98.2268 26.7229 98.0498 27.1029 97.8868 27.4229C98.2428 27.5899 98.6148 27.7579 98.9698 27.9249C99.3588 27.4529 99.6658 26.9359 99.9248 26.3419H98.4048ZM100.652 30.5269C100.296 30.2679 99.8278 30.0089 99.3418 29.7199C98.4858 30.4659 97.4678 31.0449 96.3198 31.4549C96.1578 31.0599 95.7378 30.4969 95.4298 30.1919C96.3358 29.9329 97.1758 29.5079 97.8868 28.9599C97.1758 28.6099 96.4488 28.3049 95.7858 28.0469C96.0768 27.5589 96.3838 26.9809 96.6758 26.3419H95.8018V25.0029H97.2728C97.4348 24.5919 97.5958 24.1959 97.7258 23.8009H95.9638V22.4159H101.46V23.8009H99.3898C99.2608 24.1959 99.1158 24.5919 98.9698 25.0029H100.603L100.878 24.9569L101.881 25.2769C101.556 26.6159 101.04 27.7119 100.344 28.6249C100.846 28.8839 101.282 29.1419 101.638 29.3699L100.652 30.5269ZM107.037 22.9329C106.551 25.2769 105.824 27.2849 104.742 28.9449C105.032 29.8269 105.372 30.3599 105.727 30.3599C106.018 30.3599 106.164 29.5989 106.213 27.8029C106.616 28.1989 107.231 28.5789 107.7 28.7769C107.441 31.4249 106.891 32.1099 105.517 32.1099C104.661 32.1099 104.014 31.5159 103.497 30.5419C102.915 31.1659 102.268 31.6989 101.541 32.1709C101.282 31.8359 100.603 31.1959 100.216 30.9069C101.234 30.3289 102.091 29.5839 102.786 28.7009C102.268 26.8139 101.994 24.2879 101.864 21.5939H95.4628V24.3639C95.4628 26.6159 95.2198 29.9639 93.7818 32.0329C93.4908 31.7289 92.7468 31.1509 92.3428 30.9679C93.5718 29.0659 93.6848 26.3579 93.6848 24.3639V19.9509H101.8C101.783 19.2659 101.767 18.5809 101.767 17.8969H103.658C103.642 18.5959 103.642 19.2659 103.658 19.9509H105.727C105.243 19.5709 104.532 19.1289 103.966 18.8089L105.016 17.7749C105.744 18.1249 106.665 18.6879 107.15 19.0989L106.294 19.9509H107.392V21.5939H103.707C103.788 23.3599 103.95 25.0029 104.176 26.3879C104.661 25.2919 105.016 24.0439 105.259 22.6899L107.037 22.9329Z" fill="#AD2031"/>
<path fill-rule="evenodd" clip-rule="evenodd" d="M121.883 22.1114C121.43 21.4574 120.379 20.4834 119.474 19.8284L120.736 18.7944C121.609 19.4184 122.739 20.3164 123.225 20.9854L121.883 22.1114ZM121.463 26.1294C120.961 25.4594 119.83 24.4854 118.893 23.8004L120.121 22.7654C121.042 23.3744 122.238 24.3184 122.773 24.9724L121.463 26.1294ZM125.52 28.2444V32.0794H123.629V28.5644L118.747 29.3554L118.44 27.6354L123.629 26.7984V17.8814H125.52V26.4944L127.12 26.2354L127.428 27.9244L125.52 28.2444ZM117.551 27.5904C117.357 27.1634 116.969 26.5244 116.581 25.9164V32.0944H114.722V26.6154C114.189 27.7874 113.591 28.8684 112.96 29.6294C112.782 29.1114 112.362 28.3654 112.071 27.9094C112.976 26.9354 113.881 25.3074 114.463 23.8314H112.281V22.1414H114.722V20.4224C114.091 20.5134 113.493 20.6054 112.896 20.6664C112.83 20.2554 112.588 19.6614 112.378 19.2664C114.221 19.0074 116.241 18.5354 117.583 18.0184L118.666 19.4944C118.036 19.7224 117.324 19.9044 116.581 20.0574V22.1414H118.715V23.8314H116.581V23.9524C117.05 24.3794 118.375 25.8094 118.682 26.1594L117.551 27.5904Z" fill="#AD2031"/>
<path fill-rule="evenodd" clip-rule="evenodd" d="M139.918 25.17C140.37 26.175 141.017 27.087 141.825 27.864C142.666 27.103 143.361 26.205 143.846 25.17H139.918ZM146.286 23.953C145.673 26.068 144.638 27.727 143.28 29.005C144.33 29.705 145.575 30.207 147.014 30.542C146.61 30.907 146.061 31.638 145.786 32.109C144.218 31.668 142.876 31.045 141.761 30.192C140.5 31.014 139.077 31.623 137.51 32.064C137.299 31.577 136.83 30.816 136.475 30.42C137.897 30.101 139.206 29.614 140.338 28.929C139.384 27.909 138.625 26.707 138.043 25.307L138.527 25.17H137.687V23.542H140.871V21.716H137.397V20.042H140.871V17.866H142.779V20.042H146.399V21.716H142.779V23.542H144.719L145.058 23.466L146.286 23.953ZM137.331 26.007C136.766 26.159 136.184 26.312 135.602 26.449V30.086C135.602 30.968 135.424 31.394 134.874 31.683C134.341 31.957 133.564 32.003 132.434 32.003C132.353 31.546 132.11 30.831 131.884 30.359C132.514 30.375 133.177 30.375 133.388 30.375C133.63 30.375 133.694 30.299 133.694 30.07V26.936L132.127 27.301L131.625 25.581C132.224 25.475 132.919 25.322 133.694 25.14V22.446H131.835V20.773H133.694V17.881H135.602V20.773H137.187V22.446H135.602V24.698L137.089 24.349L137.331 26.007Z" fill="#AD2031"/>
<path fill-rule="evenodd" clip-rule="evenodd" d="M46.5347 0.00400025C46.0157 -0.177 44.3697 5.176 38.8497 11.972C38.5857 12.298 38.4057 12.508 38.3207 12.613C31.1057 22.245 20.7967 28.126 19.4557 28.672C18.0557 29.239 17.8117 29.951 18.9627 30.449C27.5367 34.026 27.3097 41.86 25.8297 45.834C24.9507 48.396 22.5257 48.991 21.0207 49.132C19.2757 49.299 19.5677 48.355 19.5677 48.355C20.3657 46.508 20.2057 44.291 20.1467 43.719C20.1387 43.635 20.1857 43.558 20.2647 43.528C20.7337 43.348 22.2817 42.738 22.5167 42.432C22.9437 41.875 23.0817 37.455 19.5907 35.497C13.5307 32.094 9.70866 36.64 9.02666 37.549C8.96466 37.633 8.84466 37.649 8.76266 37.584C3.62866 33.552 5.12666 26.594 5.17466 26.379C5.17466 26.375 5.17566 26.371 5.17666 26.367C5.38866 24.81 6.07166 23.212 6.44366 22.428C6.52066 22.266 6.34766 22.097 6.18966 22.182C5.57566 22.511 4.96366 22.924 4.38366 23.441C0.787663 26.651 0.841663 31.725 0.930663 33.261C0.938663 33.396 0.806663 33.491 0.680663 33.445C0.581663 33.409 0.460663 33.354 0.324663 33.269C0.206663 33.195 0.050663 33.27 0.039663 33.408C-0.184337 36.228 0.600663 39.087 0.889663 40.021C0.932663 40.161 0.807663 40.294 0.666663 40.256C0.568663 40.231 0.454663 40.198 0.327663 40.16C0.204663 40.123 0.079663 40.218 0.085663 40.346C0.221663 43.226 1.26666 45.132 1.78466 45.91C1.88066 46.053 1.74866 46.236 1.58166 46.193C1.48866 46.169 1.40166 46.143 1.30566 46.109C1.16766 46.06 1.02766 46.184 1.06166 46.327C1.45966 48.006 2.99566 49.442 3.75766 50.069C3.89466 50.183 3.80866 50.408 3.63066 50.399C3.62666 50.399 3.62166 50.398 3.61766 50.398C3.46066 50.388 3.35866 50.563 3.45166 50.691C4.12166 51.618 5.68766 52.858 7.06966 53.379C11.0777 54.947 14.1267 53.973 14.5257 53.832C14.5567 53.82 14.5897 53.818 14.6227 53.825C15.2597 53.955 18.4787 54.847 21.7277 54.341C33.4067 52.53 36.5537 43.999 36.9017 42.949C37.2557 41.902 36.9697 41.889 36.6247 42.33C36.1587 42.921 35.4017 43.27 34.8237 43.462C34.6347 43.525 34.4917 43.284 34.6387 43.15C37.4967 40.55 39.1017 36.375 39.3857 35.333C39.7927 33.834 39.0727 34.476 38.8417 34.731C37.8647 35.797 36.8207 36.488 36.1137 36.881C35.9337 36.982 35.7487 36.755 35.8827 36.598C38.4697 33.573 39.6677 30.638 40.0557 28.971C40.5057 27.062 39.7057 27.974 39.7057 27.974C38.7667 29.32 37.7257 30.158 36.9837 30.639C36.8027 30.756 36.6007 30.521 36.7447 30.359C41.9047 24.558 42.8477 17.883 43.0077 17.054C43.3217 15.387 42.2977 16.892 41.7827 17.658C40.6417 19.352 39.1737 20.714 38.1947 21.524C38.0267 21.663 37.7987 21.448 37.9267 21.272C40.5917 17.592 43.3107 12.872 45.1907 7.057C46.4137 3.276 46.9237 0.139 46.5347 0.00400025ZM13.5147 51.48C12.8407 51.749 8.77866 46.689 9.37966 43.034C9.37966 43.034 11.7357 44.128 13.1887 44.239C13.1887 44.239 13.8447 47.205 16.4497 49.357C16.4497 49.357 15.4117 50.719 13.5147 51.48ZM18.1247 42.239C17.3317 42.45 15.5837 42.499 15.2197 41.473C15.2177 41.471 17.0607 38.492 19.3267 40.957C19.3267 40.957 19.8177 41.782 18.1247 42.239Z" fill="#AD2031"/>
<path fill-rule="evenodd" clip-rule="evenodd" d="M53.8569 39.754L52.2999 46.991C52.2749 47.042 52.2539 47.126 52.2399 47.243C51.9069 48.792 51.3829 49.836 50.6679 50.375C49.9529 50.914 48.9149 51.184 47.5549 51.184C47.0079 51.184 46.5069 51.159 46.0529 51.11C45.5979 51.063 45.1389 50.939 44.6759 50.739C44.2139 50.54 43.8339 50.219 43.5349 49.777C43.2359 49.335 43.0859 48.746 43.0859 48.01C43.0859 47.8 43.1119 47.537 43.1629 47.22L46.4439 46.845V46.975C46.4229 47.118 46.4139 47.264 46.4139 47.412V47.65C46.4139 48.268 46.7529 48.577 47.4329 48.577C47.7589 48.577 48.0149 48.496 48.1999 48.332C48.3829 48.169 48.5199 47.959 48.6099 47.703C48.6989 47.448 48.7929 47.085 48.8889 46.615L50.3689 39.754H53.8569Z" fill="#AD2031"/>
<path fill-rule="evenodd" clip-rule="evenodd" d="M57.7357 44.5221C58.1787 44.3181 58.5047 44.1051 58.7137 43.8841C58.9227 43.6631 59.0257 43.4601 59.0257 43.2781C59.0257 43.1221 58.9537 42.9841 58.8077 42.8671C58.6627 42.7501 58.4787 42.6911 58.2567 42.6911C57.9787 42.6911 57.7557 42.7781 57.5867 42.9521C57.4167 43.1261 57.3327 43.3361 57.3327 43.5841C57.3327 43.8061 57.4657 44.1191 57.7357 44.5221ZM58.1987 48.8291C57.5037 48.1081 56.9627 47.4721 56.5767 46.9201C55.7987 47.3241 55.4097 47.7781 55.4097 48.2821C55.4097 48.4511 55.4547 48.6291 55.5437 48.8161C55.6317 49.0031 55.7657 49.1511 55.9447 49.2621C56.1227 49.3731 56.3407 49.4281 56.6017 49.4281C57.0847 49.4281 57.6167 49.2291 58.1987 48.8291ZM62.3097 47.7221C62.0317 48.1081 61.7127 48.4951 61.3517 48.8811C61.4427 48.9591 61.7147 49.2091 62.1667 49.6301L60.6807 51.1551C60.4947 51.0211 60.2377 50.8101 59.9127 50.5221C59.8117 50.4281 59.7317 50.3581 59.6717 50.3141C59.1237 50.6571 58.6287 50.8841 58.1857 50.9921C57.7427 51.1011 57.2147 51.1551 56.6017 51.1551C55.2907 51.1551 54.3327 50.8901 53.7287 50.3601C53.1257 49.8301 52.8237 49.2051 52.8237 48.4841C52.8237 47.1061 53.7357 46.0801 55.5597 45.4021C55.2127 44.7941 55.0387 44.2211 55.0387 43.6821C55.0387 42.9131 55.3397 42.3201 55.9407 41.9031C56.5427 41.4861 57.2957 41.2781 58.1987 41.2781C59.1017 41.2781 59.8287 41.4781 60.3787 41.8771C60.9267 42.2771 61.2027 42.7721 61.2027 43.3631C61.2027 43.7361 61.1047 44.0691 60.9087 44.3591C60.7137 44.6501 60.4637 44.9051 60.1597 45.1221C59.8557 45.3391 59.4727 45.5691 59.0127 45.8131C58.9867 45.8211 58.8847 45.8761 58.7067 45.9751L59.8987 47.4281C60.0817 47.2021 60.2947 46.9551 60.5377 46.6861C60.6117 46.6031 60.6597 46.5441 60.6807 46.5091L62.3097 47.7221Z" fill="#AD2031"/>
<path fill-rule="evenodd" clip-rule="evenodd" d="M76.3305 39.754L71.4625 43.993L74.9045 50.992H71.1475L69.0325 46.124L66.5795 48.233L66.0045 50.992H62.5015L64.9005 39.754H68.4035L67.4915 43.955L67.5225 43.993L71.7625 39.754H76.3305Z" fill="#AD2031"/>
<path fill-rule="evenodd" clip-rule="evenodd" d="M91.3412 42.8736L88.0912 43.0506C88.0192 42.0736 87.4752 41.5856 86.4582 41.5856C86.0442 41.5856 85.7262 41.6736 85.5032 41.8506C85.2812 42.0266 85.1702 42.2376 85.1702 42.4826C85.1702 42.6616 85.2592 42.8316 85.4392 42.9926C85.6172 43.1536 86.0412 43.3596 86.7112 43.6096C87.5592 43.9366 88.2492 44.2456 88.7802 44.5376C89.3132 44.8286 89.7472 45.2066 90.0842 45.6716C90.4212 46.1366 90.5902 46.7166 90.5902 47.4126C90.5902 48.0666 90.4072 48.6756 90.0422 49.2406C89.6762 49.8046 89.1502 50.2706 88.4632 50.6356C87.7762 51.0006 86.7982 51.1836 85.5302 51.1836C83.7462 51.1836 82.4822 50.8416 81.7362 50.1566C80.9892 49.4716 80.6162 48.5926 80.6162 47.5196V47.2586L83.8822 47.0366C83.8822 47.7366 84.0362 48.2316 84.3462 48.5196C84.6552 48.8086 85.0832 48.9536 85.6302 48.9536C86.1822 48.9536 86.6032 48.8326 86.8912 48.5926C87.1802 48.3526 87.3242 48.0796 87.3242 47.7726C87.3242 47.5416 87.2332 47.3306 87.0482 47.1366C86.8642 46.9416 86.4122 46.7146 85.6922 46.4536C84.0402 45.8606 82.9962 45.3136 82.5602 44.8136C82.1222 44.3126 81.9042 43.7096 81.9042 43.0036C81.9042 42.3596 82.0842 41.7726 82.4452 41.2406C82.8052 40.7086 83.3292 40.2966 84.0172 40.0026C84.7032 39.7086 85.5282 39.5616 86.4882 39.5616C89.5292 39.5616 91.1472 40.6656 91.3412 42.8736Z" fill="#AD2031"/>
<path fill-rule="evenodd" clip-rule="evenodd" d="M101.327 45.6876L98.5057 45.8406C98.3727 45.1306 97.8937 44.7746 97.0717 44.7746C96.3097 44.7746 95.7247 45.0836 95.3157 45.6986C94.9067 46.3146 94.7027 46.9856 94.7027 47.7106C94.7027 48.1506 94.8477 48.4876 95.1397 48.7226C95.4307 48.9586 95.7457 49.0756 96.0827 49.0756C96.9157 49.0756 97.5337 48.6156 97.9377 47.6956L100.859 48.0106C100.139 50.1256 98.5057 51.1836 95.9597 51.1836C93.0927 51.1836 91.6597 50.0106 91.6597 47.6656C91.6597 46.3006 92.1327 45.1276 93.0777 44.1456C94.0227 43.1656 95.3537 42.6746 97.0717 42.6746C98.3037 42.6746 99.2877 42.9266 100.023 43.4296C100.76 43.9326 101.194 44.6856 101.327 45.6876Z" fill="#AD2031"/>
<path fill-rule="evenodd" clip-rule="evenodd" d="M106.969 39.754L106.525 41.9H103.405L103.842 39.754H106.969ZM106.325 42.858L104.577 50.992H101.443L103.183 42.858H106.325Z" fill="#AD2031"/>
<path fill-rule="evenodd" clip-rule="evenodd" d="M113.04 46.2164C113.075 46.1044 113.094 45.9474 113.094 45.7484C113.094 45.3344 112.97 45.0214 112.722 44.8094C112.474 44.5974 112.168 44.4914 111.806 44.4914C111.422 44.4914 111.069 44.6354 110.747 44.9244C110.426 45.2134 110.181 45.6444 110.012 46.2164H113.04ZM115.646 48.9074C115.191 49.7154 114.597 50.2964 113.864 50.6504C113.131 51.0064 112.212 51.1834 111.107 51.1834C109.503 51.1834 108.362 50.8224 107.686 50.0984C107.008 49.3764 106.669 48.4904 106.669 47.4424C106.669 46.7164 106.827 46.0334 107.144 45.3924C107.461 44.7504 107.891 44.2134 108.433 43.7784C108.974 43.3434 109.508 43.0514 110.035 42.9014C110.561 42.7494 111.177 42.6744 111.882 42.6744C113.4 42.6744 114.489 43.0044 115.148 43.6634C115.808 44.3224 116.137 45.1334 116.137 46.0934C116.137 46.4104 116.068 46.9544 115.93 47.7264H109.727C109.815 48.8154 110.303 49.3594 111.192 49.3594C111.795 49.3594 112.275 49.1134 112.634 48.6234L115.646 48.9074Z" fill="#AD2031"/>
<path fill-rule="evenodd" clip-rule="evenodd" d="M120.862 44.1158C121.72 43.1548 122.768 42.6748 124.005 42.6748C124.741 42.6748 125.293 42.8628 125.661 43.2378C126.029 43.6138 126.213 44.0748 126.213 44.6218C126.213 44.9488 126.111 45.5928 125.907 46.5538L124.964 50.9918H121.836L122.64 47.2128C122.835 46.2878 122.932 45.7588 122.932 45.6258C122.932 45.1768 122.727 44.9508 122.318 44.9508C121.858 44.9508 121.458 45.1668 121.115 45.5988C120.772 46.0308 120.514 46.6538 120.341 47.4658L119.574 50.9918H116.43L118.178 42.8588H121.099L120.832 44.0848L120.862 44.1158Z" fill="#AD2031"/>
<path fill-rule="evenodd" clip-rule="evenodd" d="M133.518 42.8585L133.042 45.0895H131.41L130.811 47.9635C130.77 48.0875 130.75 48.2165 130.75 48.3555C130.75 48.7225 130.993 48.9075 131.478 48.9075C131.631 48.9075 131.954 48.8585 132.445 48.7615L131.976 50.9925C131.036 51.1205 130.346 51.1835 129.907 51.1835C129.033 51.1835 128.413 50.9745 128.047 50.5545C127.682 50.1355 127.499 49.6785 127.499 49.1825C127.499 49.0195 127.574 48.5825 127.722 47.8725L128.304 45.0895H127.185L127.645 42.8585H128.788L129.056 41.5855L132.544 39.8455L131.9 42.8585H133.518Z" fill="#AD2031"/>
<path fill-rule="evenodd" clip-rule="evenodd" d="M138.902 39.754L138.458 41.9H135.338L135.774 39.754H138.902ZM138.258 42.858L136.51 50.992H133.375L135.115 42.858H138.258Z" fill="#AD2031"/>
<path fill-rule="evenodd" clip-rule="evenodd" d="M149.672 39.754L149.227 41.9H146.107L146.544 39.754H149.672ZM149.027 42.858L147.287 50.992H144.145L145.885 42.858H149.027ZM145.838 39.907L145.34 41.762C144.901 41.624 144.537 41.555 144.252 41.555C144.012 41.555 143.818 41.611 143.669 41.724C143.521 41.837 143.391 42.214 143.277 42.858H144.942L144.458 45.089H142.811L141.553 50.992H138.602L139.89 45.089H138.901L139.368 42.858H140.342C140.526 41.995 140.648 41.457 140.706 41.245C140.765 41.032 140.881 40.793 141.055 40.524C141.229 40.255 141.496 40.028 141.857 39.841C142.216 39.655 142.685 39.562 143.263 39.562C143.988 39.562 144.847 39.677 145.838 39.907Z" fill="#AD2031"/>
<path fill-rule="evenodd" clip-rule="evenodd" d="M158.881 45.6876L156.061 45.8406C155.927 45.1306 155.449 44.7746 154.626 44.7746C153.864 44.7746 153.279 45.0836 152.871 45.6986C152.462 46.3146 152.258 46.9856 152.258 47.7106C152.258 48.1506 152.403 48.4876 152.694 48.7226C152.986 48.9586 153.3 49.0756 153.638 49.0756C154.471 49.0756 155.089 48.6156 155.492 47.6956L158.413 48.0106C157.693 50.1256 156.061 51.1836 153.515 51.1836C150.648 51.1836 149.214 50.0106 149.214 47.6656C149.214 46.3006 149.687 45.1276 150.632 44.1456C151.578 43.1656 152.909 42.6746 154.626 42.6746C155.858 42.6746 156.842 42.9266 157.578 43.4296C158.314 43.9326 158.748 44.6856 158.881 45.6876Z" fill="#AD2031"/>
</g>
</svg>
