<svg width="28" height="29" viewBox="0 0 28 29" fill="none" xmlns="http://www.w3.org/2000/svg">
<path d="M24 11.375C24 15.172 20.922 18.25 17.125 18.25C16.6867 18.25 16.2582 18.2085 15.8427 18.1301L14.9047 19.1854C14.8168 19.2843 14.7089 19.3635 14.5881 19.4177C14.4673 19.472 14.3364 19.5 14.204 19.5H12.75V21.0625C12.75 21.5803 12.3303 22 11.8125 22H10.25V23.5625C10.25 24.0803 9.83027 24.5 9.3125 24.5H4.9375C4.41973 24.5 4 24.0803 4 23.5625V20.5133C4 20.2647 4.09879 20.0262 4.27457 19.8504L10.595 13.53C10.3714 12.8521 10.25 12.1278 10.25 11.375C10.25 7.57805 13.328 4.50004 17.125 4.5C20.9331 4.49996 24 7.56684 24 11.375ZM17.125 9.5C17.125 10.5355 17.9645 11.375 19 11.375C20.0355 11.375 20.875 10.5355 20.875 9.5C20.875 8.46445 20.0355 7.625 19 7.625C17.9645 7.625 17.125 8.46445 17.125 9.5Z" fill="#A6A7AA"/>
</svg>
