<svg width="28" height="29" viewBox="0 0 28 29" fill="none" xmlns="http://www.w3.org/2000/svg">
<path d="M14 15.75C17.1055 15.75 19.625 13.2305 19.625 10.125C19.625 7.01953 17.1055 4.5 14 4.5C10.8945 4.5 8.375 7.01953 8.375 10.125C8.375 13.2305 10.8945 15.75 14 15.75ZM19 17H16.8477C15.9805 17.3984 15.0156 17.625 14 17.625C12.9844 17.625 12.0234 17.3984 11.1523 17H9C6.23828 17 4 19.2383 4 22V22.625C4 23.6602 4.83984 24.5 5.875 24.5H22.125C23.1602 24.5 24 23.6602 24 22.625V22C24 19.2383 21.7617 17 19 17Z" fill="#A6A7AA"/>
</svg>
