<svg version="1.1" id="圖層_1" xmlns="http://www.w3.org/2000/svg" xmlns:xlink="http://www.w3.org/1999/xlink" x="0" y="0" viewBox="0 0 340.2 141.7" style="enable-background:new 0 0 340.2 141.7" xml:space="preserve"><style>.st1{fill:#ad2031}</style><defs><path id="SVGID_1_" d="M5.1-101.1h333v333H5.1z"/></defs><clipPath id="SVGID_2_"><use xlink:href="#SVGID_1_" style="overflow:visible"/></clipPath><g id="Logo" style="clip-path:url(#SVGID_2_)"><g id="home" transform="translate(6 173.128)"><g id="Group-20" transform="translate(0 -8.128)"><path id="Fill-1" class="st1" d="M122.6-95.6h14.6v-4.2h-14.6v4.2zm0-7.5h14.6v-4.1h-14.6v4.1zm9.3-11.1c-.3 1.2-.7 2.4-1.1 3.6h10.6v20.4h-4.2v-1.9h-14.6v1.9h-4v-20.4h8.1c.2-1.1.4-2.3.6-3.6h-12v-3.6h29.1v3.6h-12.5z"/><path id="Fill-3" class="st1" d="M173.6-98.1c1.3-1.9 2.5-3.9 3.4-6l3.4 1.8c-1.3 2.1-2.7 4.3-3.9 5.8l-2.9-1.6zm5.9-7.6h-24.6v-3.3h20.8v-1.5h-19.3v-2.6h19.3v-1.5h-20.8v-3.3h24.6v12.2zm-18.5 3c-.8 2.3-1.9 4.8-3.6 6.4l-3.3-1.8c1.6-1.6 2.9-3.6 3.5-5.8l3.4 1.2zm8.8-2.4c-.1 1.2-.3 2.2-.5 3.3 1.9 5.1 6 7.9 13.9 8.7-.9 1-1.7 2.1-2.3 3.4-6.7-1-10.6-3.4-13.1-7.6-1.9 3.7-5.7 6.4-13.8 7.9-.5-1.2-1.2-2.3-2.1-3.2 12-2 13-6.1 13.6-12.5h4.3z"/><path id="Fill-4" class="st1" d="M204-101.4c-.4.8-.7 1.6-1.1 2.2.7.3 1.5.7 2.2 1 .8-1 1.5-2.1 2-3.2H204zm4.6 8.5c-.7-.5-1.7-1.1-2.7-1.7-1.8 1.6-3.9 2.8-6.2 3.6-.5-1-1.1-1.8-1.8-2.6 1.8-.5 3.5-1.4 5-2.5-1.5-.7-2.9-1.3-4.3-1.9.7-1.1 1.3-2.3 1.8-3.5h-1.8v-2.7h3c.3-.8.7-1.7.9-2.5H199v-2.8h11.3v2.8H206c-.3.8-.6 1.6-.9 2.5h3.3l.6-.1 2.1.7c-.6 2.5-1.6 4.8-3.1 6.9 1 .5 1.9 1.1 2.7 1.5l-2.1 2.3zm13.1-15.5c-1 4.8-2.5 8.9-4.7 12.3.6 1.8 1.3 2.9 2 2.9.6 0 .9-1.6 1-5.2.9.8 1.9 1.5 3 2-.5 5.4-1.7 6.8-4.5 6.8-1.8 0-3.1-1.2-4.1-3.2-1.2 1.3-2.5 2.4-4 3.3-.8-1-1.7-1.8-2.7-2.6 2-1.1 3.8-2.7 5.3-4.5-1.1-3.9-1.6-9-1.9-14.6H198v5.7c0 4.6-.5 11.5-3.4 15.7-.9-.9-1.9-1.6-2.9-2.2 2.5-3.9 2.7-9.4 2.7-13.5v-9H211c0-1.4-.1-2.8-.1-4.2h3.9v4.2h4.2c-1.1-.9-2.4-1.6-3.6-2.3l2.2-2.1c1.6.7 3 1.7 4.4 2.7l-1.8 1.7h2.2v3.4h-7.6c.1 3.3.5 6.6 1 9.8 1-2.4 1.8-5 2.2-7.6l3.7.5z"/><path id="Fill-5" class="st1" d="M252-110.1c-1.4-1.8-3.1-3.4-4.9-4.7l2.6-2.1c1.8 1.3 4.1 3.1 5.1 4.5l-2.8 2.3zm-.9 8.2c-1.6-1.8-3.3-3.4-5.3-4.8l2.5-2.1c2 1.3 3.8 2.8 5.4 4.5l-2.6 2.4zm8.3 4.4v7.9h-3.9v-7.2l-10 1.6-.6-3.5 10.6-1.7v-18.3h3.9v17.6l3.3-.5.6 3.5-3.9.6zm-16.3-1.4c-.6-1.2-1.3-2.3-2-3.4v12.7h-3.8v-11.2c-.9 2.2-2.2 4.3-3.6 6.2-.5-1.2-1.1-2.4-1.8-3.5 1.9-2 3.7-5.3 4.9-8.4h-4.5v-3.5h5v-3.5c-1.3.2-2.5.4-3.7.5-.2-1-.6-2-1.1-2.9 3.6-.5 7.2-1.3 10.7-2.6l2.2 3c-1.4.5-2.8.9-4.3 1.2v4.3h4.4v3.5h-4.4v.2c1 .9 3.7 3.8 4.3 4.5l-2.3 2.9z"/><path id="Fill-6" class="st1" d="M288.7-103.8c.9 2.1 2.3 3.9 3.9 5.5 1.7-1.5 3.1-3.4 4.1-5.5h-8zm13-2.5c-1.1 3.9-3.2 7.5-6.2 10.4 2.3 1.5 4.9 2.6 7.7 3.1-1 1-1.8 2-2.5 3.2-3-.8-5.8-2.1-8.2-3.9-2.7 1.7-5.6 3-8.7 3.8-.6-1.2-1.3-2.3-2.1-3.4 2.8-.6 5.5-1.6 7.9-3.1-2-2.2-3.6-4.7-4.7-7.4l1-.3h-1.7v-3.3h6.5v-3.7h-7.1v-3.4h7.1v-4.5h3.9v4.5h7.4v3.4h-7.4v3.7h4l.7-.2 2.4 1.1zm-18.3 4.2c-1.2.3-2.3.6-3.5.9v7.5c0 1.8-.4 2.7-1.5 3.3-1.1.6-2.7.7-5 .7-.2-1.2-.6-2.3-1.1-3.4h3.1c.5 0 .6-.2.6-.6v-6.4l-3.2.7-1-3.5c1.2-.2 2.7-.5 4.2-.9v-5.5h-3.8v-3.4h3.8v-5.9h3.9v5.9h3.2v3.4h-3.2v4.6l3-.7.5 3.3z"/><path id="Fill-7" class="st1" d="M98.4-156.2c-1.1-.4-4.4 10.8-15.7 24.9-.5.7-.9 1.1-1.1 1.3C66.8-109.9 45.7-97.7 43-96.5c-2.9 1.2-3.4 2.7-1 3.7C59.5-85.3 59-69 56-60.7c-1.8 5.3-6.8 6.6-9.9 6.9-3.6.3-3-1.6-3-1.6 1.6-3.8 1.3-8.5 1.2-9.7 0-.2.1-.3.2-.4 1-.4 4.1-1.6 4.6-2.3.9-1.2 1.2-10.4-6-14.5C30.8-89.4 23-79.9 21.6-78c-.1.2-.4.2-.5.1-10.5-8.4-7.4-22.9-7.3-23.3.5-2.8 1.3-5.6 2.6-8.2.1-.2 0-.4-.2-.5-.1-.1-.2-.1-.3 0-1.3.7-2.6 1.6-3.7 2.6-7.5 6.6-7.4 17.2-7.2 20.4 0 .2-.1.4-.4.4h-.2c-.3-.1-.5-.2-.7-.4-.1-.1-.4-.1-.5.1 0 .1-.1.1-.1.2-.5 5.9 1.1 11.8 1.7 13.8.1.2 0 .4-.2.5h-.2c-.2-.1-.4-.1-.7-.2-.2-.1-.4.1-.5.3v.1C3.3-68 4.5-64 6.7-60.5c.1.2.1.4-.1.5h-.3c-.2 0-.4-.1-.6-.2-.2-.1-.4 0-.5.2v.2c.8 3.5 4 6.5 5.5 7.8.2.1.2.4 0 .5-.1.1-.2.1-.3.1-.2 0-.4.1-.4.4 0 .1 0 .2.1.2 2 2.5 4.5 4.4 7.4 5.6 8.2 3.3 14.5 1.2 15.3.9h.2c1.3.3 7.9 2.1 14.6 1.1C71.5-46.8 78-64.6 78.7-66.8c.7-2.2.1-2.2-.6-1.3-1 1.1-2.3 1.9-3.7 2.4-.2.1-.4 0-.5-.3 0-.1 0-.3.1-.4 5.9-5.4 9.1-14.1 9.7-16.3.8-3.1-.6-1.8-1.1-1.3-1.6 1.8-3.5 3.3-5.6 4.5-.2.1-.4 0-.5-.2-.1-.1-.1-.3 0-.4 5.3-6.3 7.8-12.4 8.5-15.9.9-4-.7-2.1-.7-2.1-1.5 2.2-3.4 4.1-5.6 5.6-.2.1-.4.1-.5-.1-.1-.1-.1-.3 0-.5 10.6-12.1 12.5-26 12.8-27.7.6-3.5-1.5-.3-2.5 1.3-2.1 3-4.5 5.7-7.4 8.1-.2.1-.4.1-.5-.1-.1-.1-.1-.3 0-.5 6.5-9 11.5-19 14.9-29.6 2.7-7.8 3.7-14.4 2.9-14.6M30.8-49c-1.4.6-9.7-10-8.5-17.6 0 0 4.8 2.3 7.8 2.5 1.1 4.1 3.4 7.9 6.7 10.7-1.6 1.9-3.7 3.5-6 4.4m9.4-19.2c-1.6.4-5.2.5-6-1.6 0 0 3.8-6.2 8.4-1.1.1 0 1.1 1.7-2.4 2.7"/><path id="Fill-8" class="st1" d="m113.1-72.9-3.2 14.8c-.1.2-.1.3-.1.5-.7 3.2-1.8 5.3-3.2 6.4-1.5 1.1-3.6 1.7-6.4 1.7-1 0-2.1 0-3.1-.2-1-.1-1.9-.4-2.8-.8-1-.4-1.8-1.1-2.3-2-.7-1.1-1-2.3-.9-3.6 0-.5.1-1.1.2-1.6l6.7-.8v.3c0 .3-.1.6-.1.9v.5c0 1.3.7 1.9 2.1 1.9.6 0 1.1-.1 1.6-.5.4-.4.7-.8.8-1.3.2-.7.4-1.5.6-2.2l3-14.1h7.1z"/><path id="Fill-9" class="st1" d="M121-63.1c.7-.3 1.4-.7 2-1.3.4-.3.6-.8.6-1.2 0-.3-.2-.6-.4-.8-.3-.2-.7-.4-1.1-.4-.5 0-1 .2-1.4.5-.3.3-.5.8-.5 1.3.1.7.3 1.3.8 1.9zm.9 8.8c-1.2-1.2-2.3-2.5-3.3-3.9-1.6.8-2.4 1.8-2.4 2.8 0 .4.1.8.3 1.1.2.4.5.7.8.9.4.2.9.4 1.3.3 1.3 0 2.4-.5 3.3-1.2zm8.5-2.3c-.6.8-1.3 1.6-2 2.4.2.2.7.7 1.7 1.5l-3 3.1c-.4-.3-.9-.7-1.6-1.3-.2-.2-.3-.3-.5-.4-.9.6-2 1.1-3 1.4-1.1.2-2.2.4-3.2.3-2.7 0-4.6-.5-5.9-1.6-1.2-.9-1.8-2.3-1.9-3.8 0-2.8 1.9-4.9 5.6-6.3-.7-1.1-1-2.3-1.1-3.5-.1-1.5.6-2.8 1.8-3.6 1.4-.9 3-1.3 4.6-1.3 1.6-.1 3.1.4 4.5 1.2 1 .7 1.7 1.8 1.7 3 0 .7-.2 1.4-.6 2-.4.6-.9 1.1-1.5 1.6-.8.5-1.5 1-2.3 1.4-.1 0-.3.1-.6.3l2.4 3c.4-.5.8-1 1.3-1.5.1-.1.2-.2.3-.4l3.3 2.5z"/><path id="Fill-10" class="st1" d="m159-72.9-10 8.7 7.1 14.3h-7.7l-4.3-10-5 4.3-1.2 5.7h-7.2l4.9-23h7.2l-1.9 8.6.1.1 8.7-8.7h9.3z"/><path id="Fill-11" class="st1" d="m189.6-66.5-6.7.4c-.1-2-1.3-3-3.3-3-.7 0-1.4.1-2 .5-.4.3-.7.8-.7 1.3 0 .4.2.8.6 1 .8.6 1.7 1 2.6 1.3 1.5.5 2.9 1.2 4.2 1.9 1.1.6 2 1.4 2.7 2.3.7 1 1.1 2.3 1 3.6 0 1.3-.4 2.6-1.1 3.7-.8 1.2-1.9 2.2-3.2 2.9-1.4.7-3.4 1.1-6 1.1-3.7 0-6.2-.7-7.8-2.1-1.5-1.4-2.4-3.4-2.3-5.4v-.5l6.7-.5c0 1.4.3 2.4 1 3 .7.6 1.7.9 2.6.9.9.1 1.8-.2 2.6-.7.5-.4.9-1 .9-1.7 0-.5-.2-1-.6-1.3-.8-.6-1.8-1.1-2.8-1.4-3.4-1.2-5.5-2.3-6.4-3.4-.9-1-1.4-2.3-1.3-3.7 0-1.3.4-2.5 1.1-3.6.8-1.1 1.9-2 3.2-2.5 1.6-.6 3.3-.9 5.1-.9 6.2 0 9.5 2.3 9.9 6.8"/><path id="Fill-12" class="st1" d="m210-60.7-5.8.3c-.3-1.5-1.3-2.2-2.9-2.2-1.5-.1-2.8.7-3.6 1.9-.8 1.2-1.3 2.7-1.3 4.1 0 .8.3 1.6.9 2.1.5.5 1.2.7 1.9.7 1.7 0 3-.9 3.8-2.8l6 .6c-1.5 4.3-4.8 6.5-10 6.5-5.9 0-8.8-2.4-8.8-7.2 0-2.7 1-5.3 2.9-7.2 1.9-2 4.7-3 8.2-3 2.5 0 4.5.5 6 1.5 1.6 1.1 2.6 2.8 2.7 4.7"/><path id="Fill-13" class="st1" d="m221.5-72.9-.9 4.4h-6.4l.9-4.4h6.4zm-1.3 6.4-3.6 16.7h-6.4l3.6-16.7h6.4z"/><path id="Fill-14" class="st1" d="M233.9-59.7c.1-.3.1-.6.1-1 .1-.7-.2-1.4-.8-1.9-.5-.4-1.2-.7-1.9-.7-.8 0-1.6.3-2.2.9-.7.7-1.3 1.6-1.5 2.6l6.3.1zm5.3 5.6c-.8 1.5-2.1 2.8-3.7 3.6-1.8.8-3.7 1.2-5.6 1.1-3.3 0-5.6-.7-7-2.2-1.4-1.5-2.1-3.4-2.1-5.4 0-1.5.3-2.9 1-4.2.6-1.3 1.5-2.4 2.6-3.3 1-.8 2.1-1.4 3.3-1.8 1.2-.3 2.5-.5 3.8-.5 3.1 0 5.3.7 6.7 2 1.3 1.3 2.1 3.1 2 5-.1 1.1-.2 2.2-.4 3.3h-12.7c.2 2.2 1.2 3.3 3 3.3 1.2 0 2.3-.5 3-1.5l6.1.6z"/><path id="Fill-15" class="st1" d="M249.9-64c1.6-1.9 4-3 6.4-3 1.2-.1 2.5.3 3.4 1.2.7.8 1.2 1.8 1.1 2.8-.1 1.3-.3 2.7-.6 4l-1.9 9.1h-6.4l1.6-7.7c.3-1.1.5-2.2.6-3.3 0-.9-.4-1.4-1.3-1.4-1 0-1.9.5-2.5 1.3-.8 1.1-1.4 2.4-1.6 3.8l-1.6 7.2h-6.4l3.6-16.7h6l-.4 2.7z"/><path id="Fill-16" class="st1" d="m275.6-66.5-1 4.6h-3.3l-1.2 5.9c-.1.3-.1.5-.1.8 0 .8.5 1.1 1.5 1.1.7 0 1.3-.1 2-.3l-1 4.6c-1.4.2-2.8.3-4.2.4-1.8 0-3.1-.4-3.8-1.3-.7-.8-1.1-1.8-1.1-2.8.1-.9.2-1.8.5-2.7l1.2-5.7h-2.3l.9-4.6h2.3l.5-2.6 7.1-3.6-1.3 6.2h3.3z"/><path id="Fill-17" class="st1" d="m286.6-72.9-.9 4.4h-6.4l.9-4.4h6.4zm-1.3 6.4-3.6 16.7h-6.4l3.6-16.7h6.4z"/><path id="Fill-18" class="st1" d="m308.6-72.9-.9 4.4h-6.4l.9-4.4h6.4zm-1.3 6.4-3.6 16.7h-6.4l3.6-16.7h6.4zm-6.5-6.1-1 3.8c-.7-.2-1.5-.4-2.2-.4-.4 0-.8.1-1.2.3-.3.2-.6 1-.8 2.3h3.4l-1 4.6h-3.4L292-49.9h-6l2.6-12.1h-2l1-4.6h2c.4-1.8.6-2.9.7-3.3.2-.5.4-1 .7-1.5.4-.6 1-1.1 1.6-1.4.9-.4 1.9-.6 2.9-.6 1.8.1 3.6.4 5.3.8z"/><path id="Fill-19" class="st1" d="m327.5-60.7-5.8.3c-.3-1.5-1.3-2.2-2.9-2.2-1.5-.1-2.8.7-3.6 1.9-.8 1.2-1.3 2.7-1.3 4.1 0 .8.3 1.6.9 2.1.5.5 1.2.7 1.9.7 1.7 0 3-.9 3.8-2.8l6 .6c-1.5 4.3-4.8 6.5-10 6.5-5.9 0-8.8-2.4-8.8-7.2 0-2.7 1-5.3 2.9-7.2 1.9-2 4.7-3 8.2-3 2.5 0 4.5.5 6 1.5 1.6 1.1 2.6 2.8 2.7 4.7"/></g><g id="Group-20-2" transform="translate(0 -8.128)"><path id="Fill-1-2" class="st1" d="M122.6-95.6h14.6v-4.2h-14.6v4.2zm0-7.5h14.6v-4.1h-14.6v4.1zm9.3-11.1c-.3 1.2-.7 2.4-1.1 3.6h10.6v20.4h-4.2v-1.9h-14.6v1.9h-4v-20.4h8.1c.2-1.1.4-2.3.6-3.6h-12v-3.6h29.1v3.6h-12.5z"/><path id="Fill-3-2" class="st1" d="M173.6-98.1c1.3-1.9 2.5-3.9 3.4-6l3.4 1.8c-1.3 2.1-2.7 4.3-3.9 5.8l-2.9-1.6zm5.9-7.6h-24.6v-3.3h20.8v-1.5h-19.3v-2.6h19.3v-1.5h-20.8v-3.3h24.6v12.2zm-18.5 3c-.8 2.3-1.9 4.8-3.6 6.4l-3.3-1.8c1.6-1.6 2.9-3.6 3.5-5.8l3.4 1.2zm8.8-2.4c-.1 1.2-.3 2.2-.5 3.3 1.9 5.1 6 7.9 13.9 8.7-.9 1-1.7 2.1-2.3 3.4-6.7-1-10.6-3.4-13.1-7.6-1.9 3.7-5.7 6.4-13.8 7.9-.5-1.2-1.2-2.3-2.1-3.2 12-2 13-6.1 13.6-12.5h4.3z"/><path id="Fill-4-2" class="st1" d="M204-101.4c-.4.8-.7 1.6-1.1 2.2.7.3 1.5.7 2.2 1 .8-1 1.5-2.1 2-3.2H204zm4.6 8.5c-.7-.5-1.7-1.1-2.7-1.7-1.8 1.6-3.9 2.8-6.2 3.6-.5-1-1.1-1.8-1.8-2.6 1.8-.5 3.5-1.4 5-2.5-1.5-.7-2.9-1.3-4.3-1.9.7-1.1 1.3-2.3 1.8-3.5h-1.8v-2.7h3c.3-.8.7-1.7.9-2.5H199v-2.8h11.3v2.8H206c-.3.8-.6 1.6-.9 2.5h3.3l.6-.1 2.1.7c-.6 2.5-1.6 4.8-3.1 6.9 1 .5 1.9 1.1 2.7 1.5l-2.1 2.3zm13.1-15.5c-1 4.8-2.5 8.9-4.7 12.3.6 1.8 1.3 2.9 2 2.9.6 0 .9-1.6 1-5.2.9.8 1.9 1.5 3 2-.5 5.4-1.7 6.8-4.5 6.8-1.8 0-3.1-1.2-4.1-3.2-1.2 1.3-2.5 2.4-4 3.3-.8-1-1.7-1.8-2.7-2.6 2-1.1 3.8-2.7 5.3-4.5-1.1-3.9-1.6-9-1.9-14.6H198v5.7c0 4.6-.5 11.5-3.4 15.7-.9-.9-1.9-1.6-2.9-2.2 2.5-3.9 2.7-9.4 2.7-13.5v-9H211c0-1.4-.1-2.8-.1-4.2h3.9v4.2h4.2c-1.1-.9-2.4-1.6-3.6-2.3l2.2-2.1c1.6.7 3 1.7 4.4 2.7l-1.8 1.7h2.2v3.4h-7.6c.1 3.3.5 6.6 1 9.8 1-2.4 1.8-5 2.2-7.6l3.7.5z"/><path id="Fill-5-2" class="st1" d="M252-110.1c-1.4-1.8-3.1-3.4-4.9-4.7l2.6-2.1c1.8 1.3 4.1 3.1 5.1 4.5l-2.8 2.3zm-.9 8.2c-1.6-1.8-3.3-3.4-5.3-4.8l2.5-2.1c2 1.3 3.8 2.8 5.4 4.5l-2.6 2.4zm8.3 4.4v7.9h-3.9v-7.2l-10 1.6-.6-3.5 10.6-1.7v-18.3h3.9v17.6l3.3-.5.6 3.5-3.9.6zm-16.3-1.4c-.6-1.2-1.3-2.3-2-3.4v12.7h-3.8v-11.2c-.9 2.2-2.2 4.3-3.6 6.2-.5-1.2-1.1-2.4-1.8-3.5 1.9-2 3.7-5.3 4.9-8.4h-4.5v-3.5h5v-3.5c-1.3.2-2.5.4-3.7.5-.2-1-.6-2-1.1-2.9 3.6-.5 7.2-1.3 10.7-2.6l2.2 3c-1.4.5-2.8.9-4.3 1.2v4.3h4.4v3.5h-4.4v.2c1 .9 3.7 3.8 4.3 4.5l-2.3 2.9z"/><path id="Fill-6-2" class="st1" d="M288.7-103.8c.9 2.1 2.3 3.9 3.9 5.5 1.7-1.5 3.1-3.4 4.1-5.5h-8zm13-2.5c-1.1 3.9-3.2 7.5-6.2 10.4 2.3 1.5 4.9 2.6 7.7 3.1-1 1-1.8 2-2.5 3.2-3-.8-5.8-2.1-8.2-3.9-2.7 1.7-5.6 3-8.7 3.8-.6-1.2-1.3-2.3-2.1-3.4 2.8-.6 5.5-1.6 7.9-3.1-2-2.2-3.6-4.7-4.7-7.4l1-.3h-1.7v-3.3h6.5v-3.7h-7.1v-3.4h7.1v-4.5h3.9v4.5h7.4v3.4h-7.4v3.7h4l.7-.2 2.4 1.1zm-18.3 4.2c-1.2.3-2.3.6-3.5.9v7.5c0 1.8-.4 2.7-1.5 3.3-1.1.6-2.7.7-5 .7-.2-1.2-.6-2.3-1.1-3.4h3.1c.5 0 .6-.2.6-.6v-6.4l-3.2.7-1-3.5c1.2-.2 2.7-.5 4.2-.9v-5.5h-3.8v-3.4h3.8v-5.9h3.9v5.9h3.2v3.4h-3.2v4.6l3-.7.5 3.3z"/><path id="Fill-7-2" class="st1" d="M98.4-156.2c-1.1-.4-4.4 10.8-15.7 24.9-.5.7-.9 1.1-1.1 1.3C66.8-109.9 45.7-97.7 43-96.5c-2.9 1.2-3.4 2.7-1 3.7C59.5-85.3 59-69 56-60.7c-1.8 5.3-6.8 6.6-9.9 6.9-3.6.3-3-1.6-3-1.6 1.6-3.8 1.3-8.5 1.2-9.7 0-.2.1-.3.2-.4 1-.4 4.1-1.6 4.6-2.3.9-1.2 1.2-10.4-6-14.5C30.8-89.4 23-79.9 21.6-78c-.1.2-.4.2-.5.1-10.5-8.4-7.4-22.9-7.3-23.3.5-2.8 1.3-5.6 2.6-8.2.1-.2 0-.4-.2-.5-.1-.1-.2-.1-.3 0-1.3.7-2.6 1.6-3.7 2.6-7.5 6.6-7.4 17.2-7.2 20.4 0 .2-.1.4-.4.4h-.2c-.3-.1-.5-.2-.7-.4-.1-.1-.4-.1-.5.1 0 .1-.1.1-.1.2-.5 5.9 1.1 11.8 1.7 13.8.1.2 0 .4-.2.5h-.2c-.2-.1-.4-.1-.7-.2-.2-.1-.4.1-.5.3v.1C3.3-68 4.5-64 6.7-60.5c.1.2.1.4-.1.5h-.3c-.2 0-.4-.1-.6-.2-.2-.1-.4 0-.5.2v.2c.8 3.5 4 6.5 5.5 7.8.2.1.2.4 0 .5-.1.1-.2.1-.3.1-.2 0-.4.1-.4.4 0 .1 0 .2.1.2 2 2.5 4.5 4.4 7.4 5.6 8.2 3.3 14.5 1.2 15.3.9h.2c1.3.3 7.9 2.1 14.6 1.1C71.5-46.8 78-64.6 78.7-66.8c.7-2.2.1-2.2-.6-1.3-1 1.1-2.3 1.9-3.7 2.4-.2.1-.4 0-.5-.3 0-.1 0-.3.1-.4 5.9-5.4 9.1-14.1 9.7-16.3.8-3.1-.6-1.8-1.1-1.3-1.6 1.8-3.5 3.3-5.6 4.5-.2.1-.4 0-.5-.2-.1-.1-.1-.3 0-.4 5.3-6.3 7.8-12.4 8.5-15.9.9-4-.7-2.1-.7-2.1-1.5 2.2-3.4 4.1-5.6 5.6-.2.1-.4.1-.5-.1-.1-.1-.1-.3 0-.5 10.6-12.1 12.5-26 12.8-27.7.6-3.5-1.5-.3-2.5 1.3-2.1 3-4.5 5.7-7.4 8.1-.2.1-.4.1-.5-.1-.1-.1-.1-.3 0-.5 6.5-9 11.5-19 14.9-29.6 2.7-7.8 3.7-14.4 2.9-14.6M30.8-49c-1.4.6-9.7-10-8.5-17.6 0 0 4.8 2.3 7.8 2.5 1.1 4.1 3.4 7.9 6.7 10.7-1.6 1.9-3.7 3.5-6 4.4m9.4-19.2c-1.6.4-5.2.5-6-1.6 0 0 3.8-6.2 8.4-1.1.1 0 1.1 1.7-2.4 2.7"/><path id="Fill-8-2" class="st1" d="m113.1-72.9-3.2 14.8c-.1.2-.1.3-.1.5-.7 3.2-1.8 5.3-3.2 6.4-1.5 1.1-3.6 1.7-6.4 1.7-1 0-2.1 0-3.1-.2-1-.1-1.9-.4-2.8-.8-1-.4-1.8-1.1-2.3-2-.7-1.1-1-2.3-.9-3.6 0-.5.1-1.1.2-1.6l6.7-.8v.3c0 .3-.1.6-.1.9v.5c0 1.3.7 1.9 2.1 1.9.6 0 1.1-.1 1.6-.5.4-.4.7-.8.8-1.3.2-.7.4-1.5.6-2.2l3-14.1h7.1z"/><path id="Fill-9-2" class="st1" d="M121-63.1c.7-.3 1.4-.7 2-1.3.4-.3.6-.8.6-1.2 0-.3-.2-.6-.4-.8-.3-.2-.7-.4-1.1-.4-.5 0-1 .2-1.4.5-.3.3-.5.8-.5 1.3.1.7.3 1.3.8 1.9zm.9 8.8c-1.2-1.2-2.3-2.5-3.3-3.9-1.6.8-2.4 1.8-2.4 2.8 0 .4.1.8.3 1.1.2.4.5.7.8.9.4.2.9.4 1.3.3 1.3 0 2.4-.5 3.3-1.2zm8.5-2.3c-.6.8-1.3 1.6-2 2.4.2.2.7.7 1.7 1.5l-3 3.1c-.4-.3-.9-.7-1.6-1.3-.2-.2-.3-.3-.5-.4-.9.6-2 1.1-3 1.4-1.1.2-2.2.4-3.2.3-2.7 0-4.6-.5-5.9-1.6-1.2-.9-1.8-2.3-1.9-3.8 0-2.8 1.9-4.9 5.6-6.3-.7-1.1-1-2.3-1.1-3.5-.1-1.5.6-2.8 1.8-3.6 1.4-.9 3-1.3 4.6-1.3 1.6-.1 3.1.4 4.5 1.2 1 .7 1.7 1.8 1.7 3 0 .7-.2 1.4-.6 2-.4.6-.9 1.1-1.5 1.6-.8.5-1.5 1-2.3 1.4-.1 0-.3.1-.6.3l2.4 3c.4-.5.8-1 1.3-1.5.1-.1.2-.2.3-.4l3.3 2.5z"/><path id="Fill-10-2" class="st1" d="m159-72.9-10 8.7 7.1 14.3h-7.7l-4.3-10-5 4.3-1.2 5.7h-7.2l4.9-23h7.2l-1.9 8.6.1.1 8.7-8.7h9.3z"/><path id="Fill-11-2" class="st1" d="m189.6-66.5-6.7.4c-.1-2-1.3-3-3.3-3-.7 0-1.4.1-2 .5-.4.3-.7.8-.7 1.3 0 .4.2.8.6 1 .8.6 1.7 1 2.6 1.3 1.5.5 2.9 1.2 4.2 1.9 1.1.6 2 1.4 2.7 2.3.7 1 1.1 2.3 1 3.6 0 1.3-.4 2.6-1.1 3.7-.8 1.2-1.9 2.2-3.2 2.9-1.4.7-3.4 1.1-6 1.1-3.7 0-6.2-.7-7.8-2.1-1.5-1.4-2.4-3.4-2.3-5.4v-.5l6.7-.5c0 1.4.3 2.4 1 3 .7.6 1.7.9 2.6.9.9.1 1.8-.2 2.6-.7.5-.4.9-1 .9-1.7 0-.5-.2-1-.6-1.3-.8-.6-1.8-1.1-2.8-1.4-3.4-1.2-5.5-2.3-6.4-3.4-.9-1-1.4-2.3-1.3-3.7 0-1.3.4-2.5 1.1-3.6.8-1.1 1.9-2 3.2-2.5 1.6-.6 3.3-.9 5.1-.9 6.2 0 9.5 2.3 9.9 6.8"/><path id="Fill-12-2" class="st1" d="m210-60.7-5.8.3c-.3-1.5-1.3-2.2-2.9-2.2-1.5-.1-2.8.7-3.6 1.9-.8 1.2-1.3 2.7-1.3 4.1 0 .8.3 1.6.9 2.1.5.5 1.2.7 1.9.7 1.7 0 3-.9 3.8-2.8l6 .6c-1.5 4.3-4.8 6.5-10 6.5-5.9 0-8.8-2.4-8.8-7.2 0-2.7 1-5.3 2.9-7.2 1.9-2 4.7-3 8.2-3 2.5 0 4.5.5 6 1.5 1.6 1.1 2.6 2.8 2.7 4.7"/><path id="Fill-13-2" class="st1" d="m221.5-72.9-.9 4.4h-6.4l.9-4.4h6.4zm-1.3 6.4-3.6 16.7h-6.4l3.6-16.7h6.4z"/><path id="Fill-14-2" class="st1" d="M233.9-59.7c.1-.3.1-.6.1-1 .1-.7-.2-1.4-.8-1.9-.5-.4-1.2-.7-1.9-.7-.8 0-1.6.3-2.2.9-.7.7-1.3 1.6-1.5 2.6l6.3.1zm5.3 5.6c-.8 1.5-2.1 2.8-3.7 3.6-1.8.8-3.7 1.2-5.6 1.1-3.3 0-5.6-.7-7-2.2-1.4-1.5-2.1-3.4-2.1-5.4 0-1.5.3-2.9 1-4.2.6-1.3 1.5-2.4 2.6-3.3 1-.8 2.1-1.4 3.3-1.8 1.2-.3 2.5-.5 3.8-.5 3.1 0 5.3.7 6.7 2 1.3 1.3 2.1 3.1 2 5-.1 1.1-.2 2.2-.4 3.3h-12.7c.2 2.2 1.2 3.3 3 3.3 1.2 0 2.3-.5 3-1.5l6.1.6z"/><path id="Fill-15-2" class="st1" d="M249.9-64c1.6-1.9 4-3 6.4-3 1.2-.1 2.5.3 3.4 1.2.7.8 1.2 1.8 1.1 2.8-.1 1.3-.3 2.7-.6 4l-1.9 9.1h-6.4l1.6-7.7c.3-1.1.5-2.2.6-3.3 0-.9-.4-1.4-1.3-1.4-1 0-1.9.5-2.5 1.3-.8 1.1-1.4 2.4-1.6 3.8l-1.6 7.2h-6.4l3.6-16.7h6l-.4 2.7z"/><path id="Fill-16-2" class="st1" d="m275.6-66.5-1 4.6h-3.3l-1.2 5.9c-.1.3-.1.5-.1.8 0 .8.5 1.1 1.5 1.1.7 0 1.3-.1 2-.3l-1 4.6c-1.4.2-2.8.3-4.2.4-1.8 0-3.1-.4-3.8-1.3-.7-.8-1.1-1.8-1.1-2.8.1-.9.2-1.8.5-2.7l1.2-5.7h-2.3l.9-4.6h2.3l.5-2.6 7.1-3.6-1.3 6.2h3.3z"/><path id="Fill-17-2" class="st1" d="m286.6-72.9-.9 4.4h-6.4l.9-4.4h6.4zm-1.3 6.4-3.6 16.7h-6.4l3.6-16.7h6.4z"/><path id="Fill-18-2" class="st1" d="m308.6-72.9-.9 4.4h-6.4l.9-4.4h6.4zm-1.3 6.4-3.6 16.7h-6.4l3.6-16.7h6.4zm-6.5-6.1-1 3.8c-.7-.2-1.5-.4-2.2-.4-.4 0-.8.1-1.2.3-.3.2-.6 1-.8 2.3h3.4l-1 4.6h-3.4L292-49.9h-6l2.6-12.1h-2l1-4.6h2c.4-1.8.6-2.9.7-3.3.2-.5.4-1 .7-1.5.4-.6 1-1.1 1.6-1.4.9-.4 1.9-.6 2.9-.6 1.8.1 3.6.4 5.3.8z"/><path id="Fill-19-2" class="st1" d="m327.5-60.7-5.8.3c-.3-1.5-1.3-2.2-2.9-2.2-1.5-.1-2.8.7-3.6 1.9-.8 1.2-1.3 2.7-1.3 4.1 0 .8.3 1.6.9 2.1.5.5 1.2.7 1.9.7 1.7 0 3-.9 3.8-2.8l6 .6c-1.5 4.3-4.8 6.5-10 6.5-5.9 0-8.8-2.4-8.8-7.2 0-2.7 1-5.3 2.9-7.2 1.9-2 4.7-3 8.2-3 2.5 0 4.5.5 6 1.5 1.6 1.1 2.6 2.8 2.7 4.7"/></g></g></g></svg>